<?xml version="1.0" standalone="no"?>
<!DOCTYPE svg PUBLIC "-//W3C//DTD SVG 20010904//EN"
 "http://www.w3.org/TR/2001/REC-SVG-20010904/DTD/svg10.dtd">
<svg version="1.0" xmlns="http://www.w3.org/2000/svg"
 width="2048.000000pt" height="1536.000000pt" viewBox="0 0 2048.000000 1536.000000"
 preserveAspectRatio="xMidYMid meet">
<metadata>
Created by potrace 1.16, written by Peter Selinger 2001-2019
</metadata>
<g transform="translate(0.000000,1536.000000) scale(0.100000,-0.100000)"
fill="#000000" stroke="none">
<path d="M15996 15345 c-10 -7 -15 -18 -12 -24 4 -6 -5 -18 -19 -27 -14 -9
-25 -23 -25 -30 0 -8 -4 -13 -9 -11 -5 1 -25 -15 -44 -36 -25 -26 -34 -44 -30
-60 3 -14 2 -18 -4 -10 -7 10 -14 9 -31 -3 -12 -8 -20 -20 -17 -25 3 -5 -1 -6
-9 -3 -9 3 -16 1 -16 -5 0 -10 -50 -36 -125 -66 -11 -5 -40 -10 -65 -12 -25
-2 -57 -7 -72 -12 -15 -5 -36 -7 -47 -4 -13 3 -21 1 -21 -6 0 -7 -4 -10 -10
-6 -5 3 -18 0 -29 -7 -15 -9 -23 -9 -35 1 -13 11 -16 11 -16 -1 0 -9 -12 -14
-34 -15 -18 -1 -48 -8 -65 -18 -18 -9 -35 -14 -39 -11 -3 3 0 6 7 6 7 0 10 4
7 9 -3 4 -17 6 -31 4 -13 -3 -22 -9 -19 -14 3 -5 -2 -6 -11 -3 -12 5 -15 1
-12 -17 2 -13 2 -18 0 -11 -6 16 -39 10 -36 -6 2 -7 -4 -12 -12 -12 -8 0 -15
5 -15 10 0 6 -7 10 -16 10 -10 0 -14 -6 -10 -15 3 -9 0 -15 -10 -15 -8 0 -13
4 -10 9 4 5 0 12 -6 14 -10 4 -10 8 1 15 8 6 9 12 3 16 -9 6 -27 -21 -24 -36
1 -5 -8 -9 -21 -9 -50 -3 -67 -7 -80 -17 -7 -6 -23 -9 -34 -6 -12 3 -30 1 -40
-5 -14 -8 -6 -10 40 -11 36 0 56 4 52 10 -3 6 -2 10 4 10 5 0 11 -4 13 -8 2
-5 44 -5 93 -1 144 12 553 39 630 41 69 3 71 4 98 41 35 48 260 367 270 385
11 17 -33 15 -57 -3z"/>
<path d="M19821 15289 c-1 -39 -4 -92 -6 -118 -2 -25 -7 -116 -10 -201 -3 -85
-10 -254 -15 -375 -5 -121 -12 -303 -15 -405 -4 -102 -8 -223 -10 -270 -2 -47
-6 -184 -10 -305 -3 -121 -7 -245 -10 -275 -2 -30 -7 -158 -10 -285 -3 -126
-7 -268 -10 -315 -5 -96 -12 -285 -20 -565 -3 -104 -10 -305 -16 -445 -11
-271 -14 -1243 -4 -1445 3 -66 10 -228 15 -360 11 -252 33 -617 50 -820 5 -66
14 -183 20 -260 6 -77 22 -233 36 -346 l25 -207 -21 -43 c-24 -46 -24 -24 -4
-341 l5 -86 -72 -159 c-39 -87 -85 -196 -101 -242 -27 -80 -74 -253 -81 -298
-2 -12 -10 -36 -19 -55 -9 -18 -23 -60 -31 -93 -9 -33 -36 -118 -61 -190 -26
-71 -81 -247 -122 -390 -42 -143 -87 -296 -100 -340 -12 -44 -20 -83 -16 -86
20 -18 160 -64 285 -95 78 -19 183 -46 232 -60 134 -38 186 -51 230 -59 22 -3
59 -13 83 -21 54 -18 63 -18 55 2 -3 9 0 20 8 24 11 7 9 15 -9 39 l-22 31 26
-10 c28 -11 47 -4 27 8 -9 6 -9 15 2 36 8 16 15 36 15 45 0 14 2 14 10 1 5 -8
10 -10 10 -4 0 6 -7 17 -15 24 -8 7 -15 16 -15 21 0 5 7 9 15 9 8 0 15 -5 15
-11 0 -5 5 -7 11 -3 8 4 7 9 -2 15 -10 6 -11 9 -2 9 13 0 13 34 0 46 -10 10
-9 26 2 20 4 -3 16 3 25 13 13 15 14 20 4 24 -7 3 -2 6 11 6 19 1 21 4 12 15
-9 11 -9 16 2 23 23 13 29 43 9 44 -11 0 -13 2 -4 6 10 4 9 9 -4 24 -16 18
-16 20 -1 37 10 10 17 22 17 26 0 4 9 17 21 29 12 13 19 31 16 45 -2 12 0 25
4 28 5 3 9 0 9 -5 0 -6 5 -11 11 -11 6 0 8 7 5 16 -3 9 -3 21 1 27 4 7 9 3 14
-9 6 -14 8 -11 9 16 0 19 12 58 25 85 32 65 33 89 3 80 -18 -5 -20 -4 -8 4 8
6 23 11 33 11 10 0 20 8 23 18 3 9 10 25 15 35 6 11 6 17 -1 17 -6 0 -1 10 10
22 12 13 19 31 16 40 -2 10 0 18 6 18 6 0 8 10 4 23 -3 12 1 35 9 51 22 42 22
830 1 800 -8 -10 -20 -19 -28 -20 -7 0 -21 -2 -30 -2 -10 -1 -18 -8 -18 -16 0
-11 -15 -13 -67 -11 -38 1 -74 -2 -80 -7 -9 -8 -13 -6 -13 6 0 22 -47 21 -54
-1 -4 -12 -17 -19 -37 -20 -17 -1 -41 -9 -53 -17 -21 -13 -22 -12 -21 12 0 14
6 27 14 30 7 2 22 13 32 23 10 10 34 21 53 24 19 4 40 13 47 21 6 8 15 14 20
14 5 0 33 16 63 35 60 38 107 91 99 112 -6 16 19 39 60 54 26 10 40 49 17 49
-5 0 -6 -8 -3 -17 6 -16 5 -16 -11 -4 -13 11 -20 11 -28 3 -13 -13 -38 -16
-38 -4 0 4 14 13 31 21 16 7 28 15 25 18 -2 2 -14 0 -25 -7 -12 -6 -27 -7 -34
-3 -6 4 -20 6 -29 5 -20 -4 -24 14 -5 21 9 4 8 8 -3 16 -13 9 -12 12 7 17 14
4 20 11 16 21 -4 10 0 14 13 13 10 -1 36 -2 57 -1 33 1 37 4 37 27 0 19 -4 24
-17 20 -10 -3 -31 -8 -48 -11 -29 -6 -29 -6 -10 10 11 9 32 19 48 22 25 5 27
9 27 60 0 35 -4 52 -10 48 -6 -4 -25 -8 -43 -10 -72 -9 -107 -17 -113 -26 -3
-5 -21 -9 -41 -9 -30 0 -34 2 -23 15 7 8 21 15 32 15 11 0 32 8 46 19 35 24
86 33 101 18 8 -8 11 -8 11 1 0 7 5 12 11 12 6 0 9 -7 6 -14 -4 -10 -1 -13 8
-9 13 4 15 476 15 3599 l0 3594 -328 0 -328 0 -3 -71z"/>
<path d="M5350 14444 c27 -35 152 -178 208 -238 67 -73 74 -74 307 -51 94 9
226 20 295 25 69 5 148 12 175 15 28 3 88 10 135 15 76 8 71 8 -44 4 -89 -4
-126 -2 -121 5 4 7 -7 11 -29 11 -20 0 -36 -4 -36 -10 0 -6 -28 -9 -67 -9 -38
1 -58 4 -45 6 12 2 22 9 22 15 0 5 -7 7 -16 4 -8 -3 -12 -2 -9 3 8 14 -13 24
-33 16 -14 -5 -14 -7 -2 -15 11 -7 12 -10 2 -10 -7 0 -10 -5 -6 -12 4 -7 3 -8
-4 -4 -7 4 -12 14 -12 22 0 8 -7 14 -15 14 -9 0 -13 -7 -9 -17 2 -10 -1 -8 -7
5 -8 15 -21 22 -38 21 -17 -1 -20 -3 -8 -6 9 -2 17 -11 17 -19 0 -13 -4 -12
-29 1 -17 8 -37 12 -46 8 -10 -3 -20 -1 -24 5 -10 16 -57 20 -53 5 2 -15 -14
-17 -23 -3 -3 5 -26 8 -51 6 -24 -2 -47 1 -50 6 -4 5 -17 7 -30 4 -13 -4 -24
-2 -24 3 0 5 -20 7 -45 6 -25 -2 -45 0 -45 5 0 4 -12 11 -26 14 -14 4 -24 12
-21 19 3 8 -6 12 -24 12 -16 0 -29 -4 -29 -8 0 -5 -5 -5 -10 -2 -8 5 -7 11 1
21 9 11 8 14 -7 14 -21 0 -94 59 -94 75 0 6 -10 16 -22 24 -22 14 -22 13 -8
-5z"/>
<path d="M12875 13539 c-55 -4 -172 -12 -260 -18 -88 -6 -189 -13 -225 -16
-206 -15 -354 -26 -425 -30 -100 -6 -231 -14 -310 -20 -33 -3 -195 -14 -360
-25 -385 -26 -563 -39 -596 -46 -26 -5 -43 -32 -40 -64 1 -11 -2 -10 -10 3 -8
14 -8 22 0 30 6 6 11 16 11 21 0 6 -5 5 -12 -2 -7 -7 -27 -9 -54 -5 -58 8
-176 -6 -168 -19 4 -7 37 -8 94 -4 49 4 90 4 93 -1 3 -4 -22 -9 -54 -9 -75 -2
-112 -11 -103 -26 5 -7 -3 -9 -25 -6 -30 4 -42 -5 -21 -15 6 -3 5 -4 -2 -3
-22 4 -20 26 4 36 17 7 6 9 -45 6 -38 -2 -71 -7 -74 -10 -4 -3 -1 -6 5 -6 6 0
9 -7 6 -15 -7 -18 -22 -20 -21 -2 1 34 -4 57 -13 57 -5 0 -10 -8 -10 -17 -1
-16 -2 -16 -15 1 -15 19 -19 19 -372 -3 -197 -12 -432 -26 -523 -32 -91 -5
-266 -18 -390 -29 -124 -11 -310 -24 -415 -30 -104 -7 -194 -15 -198 -19 -4
-4 -1 -21 7 -37 8 -16 33 -67 55 -114 23 -47 49 -101 60 -120 17 -31 20 -70
30 -355 6 -176 13 -498 16 -715 3 -217 10 -602 15 -855 28 -1276 29 -1446 20
-1685 -12 -279 -28 -425 -69 -610 -30 -138 -47 -185 -73 -212 -10 -10 -18 -26
-18 -35 0 -10 -7 -27 -15 -37 -19 -25 -19 -63 0 -96 8 -14 14 -36 15 -49 0
-17 4 -21 15 -17 20 7 40 -34 32 -66 -4 -13 -16 -27 -29 -33 -36 -16 -53 -61
-41 -107 8 -28 7 -38 -1 -35 -6 3 -10 10 -8 16 3 13 -23 44 -33 39 -12 -6 -54
44 -48 58 3 9 -2 14 -15 14 -23 0 -52 35 -52 62 0 10 -7 18 -15 18 -22 0 -18
-15 13 -52 34 -40 65 -88 56 -88 -3 0 9 -14 27 -31 19 -18 34 -37 34 -42 0 -6
11 -14 25 -17 22 -5 27 -16 46 -95 11 -50 33 -130 49 -179 26 -85 27 -90 10
-102 -10 -7 -22 -15 -27 -16 -12 -4 -14 -67 -4 -93 6 -14 5 -16 -2 -6 -7 9
-15 10 -27 4 -16 -9 -16 -10 1 -17 11 -4 52 -14 93 -22 41 -7 102 -27 135 -43
34 -16 78 -32 100 -36 41 -8 107 -57 209 -154 56 -54 70 -73 101 -137 8 -17
22 -36 30 -44 9 -7 16 -21 16 -31 0 -10 5 -21 10 -24 6 -3 10 -13 10 -22 0 -9
13 -37 29 -64 19 -29 26 -49 19 -51 -17 -6 0 -28 21 -28 10 0 24 -6 30 -14 9
-11 7 -15 -10 -19 -17 -4 -20 -10 -14 -24 5 -10 9 -31 9 -46 1 -20 7 -29 22
-33 14 -4 24 -16 28 -35 4 -23 11 -29 32 -29 39 0 165 -39 196 -61 47 -34 49
-54 58 -516 0 -7 7 -13 15 -13 19 0 19 -17 0 -50 -10 -18 -14 -61 -15 -154 l0
-129 -22 19 -22 19 20 -27 c23 -29 32 -122 14 -133 -5 -3 -10 -26 -10 -50 0
-24 -4 -46 -9 -49 -11 -7 -20 -48 -31 -146 -18 -147 -22 -170 -30 -170 -5 0
-11 -14 -15 -30 -4 -17 -14 -38 -23 -47 -12 -12 -13 -18 -4 -21 6 -2 12 -13
12 -23 0 -11 -4 -18 -9 -14 -6 3 -15 -3 -21 -14 -8 -16 -8 -19 3 -15 11 4 12
-3 3 -40 -6 -24 -13 -43 -16 -41 -4 2 -4 -10 -2 -27 3 -21 1 -29 -7 -24 -13 8
-15 -13 -2 -32 11 -18 36 12 27 33 -3 9 -2 14 3 11 5 -3 12 6 15 20 4 15 9 24
12 22 6 -7 -64 -197 -541 -1473 -168 -451 -324 -868 -345 -926 -22 -59 -40
-116 -40 -127 0 -11 -5 -33 -10 -47 -8 -22 -6 -34 10 -60 20 -33 25 -84 11
-120 -5 -12 -1 -36 12 -64 15 -35 18 -58 14 -105 -6 -71 -68 -244 -95 -266
-17 -13 -16 -16 24 -55 77 -73 91 -179 43 -323 -17 -51 -19 -69 -10 -88 6 -14
11 -43 11 -65 0 -56 -47 -199 -76 -228 -27 -29 -42 -23 -22 8 20 32 -2 41
-107 41 -102 1 -258 10 -264 16 -8 8 29 75 44 80 8 3 22 -1 30 -10 29 -28 145
-49 145 -26 0 6 -10 10 -22 10 -13 0 -36 7 -52 15 -15 8 -34 15 -41 15 -6 0
-20 9 -30 20 -10 11 -21 18 -25 15 -13 -8 -98 84 -130 140 -73 128 -104 332
-75 491 10 55 68 94 142 96 39 0 51 -4 71 -27 19 -22 23 -36 19 -62 -8 -48 18
-56 50 -17 33 42 30 79 -11 120 -31 31 -40 34 -90 34 -59 0 -87 -12 -138 -59
-16 -13 -28 -21 -28 -17 0 10 52 98 67 114 23 24 35 53 28 70 -6 15 -8 15 -14
-2 -6 -15 -12 -3 -26 45 -13 48 -18 94 -16 184 1 113 6 152 30 285 6 30 9 71
6 90 -12 96 -17 248 -7 281 5 20 6 42 1 50 -4 8 -11 40 -14 70 -5 41 -4 51 5
39 9 -12 10 -11 5 8 -7 23 28 92 46 92 13 0 39 56 38 82 0 22 -1 22 -9 3 -7
-17 -9 -15 -9 13 -1 20 3 31 11 30 30 -7 -3 191 -39 233 -7 8 -13 21 -13 28 0
15 -79 101 -93 101 -6 0 -18 6 -26 14 -20 17 -126 36 -143 25 -11 -7 -11 -9 0
-9 7 0 12 -6 11 -13 -3 -26 2 -37 16 -37 8 0 15 -4 15 -10 0 -15 16 -12 34 5
24 25 83 22 109 -4 l22 -23 -25 12 c-24 12 -24 11 -8 -5 15 -16 15 -21 3 -46
-13 -23 -13 -29 0 -39 9 -7 27 -10 44 -7 28 6 29 5 40 -50 9 -48 9 -59 -4 -74
-21 -22 -10 -69 16 -69 16 0 19 -8 19 -45 0 -24 -5 -56 -12 -70 -10 -21 -16
-25 -39 -20 -21 5 -31 1 -42 -16 -18 -25 -13 -47 14 -51 18 -3 18 -5 3 -33 -9
-16 -19 -55 -22 -85 l-7 -55 -5 40 c-6 39 -6 38 -19 -32 -15 -87 -9 -118 21
-102 11 6 22 9 24 7 2 -3 6 -54 9 -115 5 -109 5 -112 -17 -119 -13 -4 -26 -12
-30 -18 -12 -18 -9 -56 5 -56 22 0 38 -37 27 -65 -6 -15 -10 -56 -10 -92 0
-55 -3 -66 -19 -70 -26 -7 -32 -45 -22 -141 5 -44 6 -103 3 -132 -5 -50 -4
-52 17 -45 31 10 27 -16 -13 -85 -19 -32 -32 -61 -28 -65 4 -3 -1 -3 -10 0
-15 6 -15 10 3 52 23 54 25 80 2 38 -26 -49 -59 -85 -70 -74 -5 5 -54 12 -109
16 -54 3 -103 9 -109 13 -5 3 -28 8 -49 9 -22 2 -50 7 -63 12 -14 5 -57 12
-96 15 -40 4 -76 10 -82 14 -5 4 -28 8 -50 8 -22 0 -53 6 -69 12 -40 15 -214
22 -237 9 -15 -7 -19 -6 -19 6 0 8 -4 15 -10 15 -5 0 -10 -6 -10 -14 0 -8 -7
-16 -15 -20 -9 -3 -15 0 -15 8 0 8 -7 16 -15 20 -9 3 -15 0 -15 -10 0 -8 -4
-13 -9 -10 -5 3 -20 -4 -35 -15 -17 -14 -33 -18 -47 -14 -14 5 -19 4 -15 -4 5
-7 1 -9 -9 -5 -9 4 -21 -1 -28 -10 -11 -15 -29 -17 -125 -14 -62 2 -112 0
-112 -4 0 -5 9 -8 20 -8 11 0 20 -4 20 -10 0 -5 -11 -10 -25 -10 -24 0 -30 -9
-26 -38 2 -10 -2 -11 -18 -2 -15 8 -27 8 -42 0 -11 -7 -23 -9 -26 -6 -3 3 -12
-2 -18 -11 -11 -14 -15 -15 -28 -4 -9 7 -21 10 -27 6 -6 -3 -10 3 -10 14 0 22
-16 29 -22 9 -3 -7 -12 -9 -22 -5 -9 4 -14 12 -10 18 4 8 -3 9 -25 4 -25 -5
-31 -3 -31 10 0 14 -7 16 -31 13 -36 -6 -49 13 -28 39 13 15 10 16 -28 11 -24
-4 -46 -2 -49 3 -3 5 0 8 8 7 16 -4 24 60 9 75 -6 6 -11 19 -11 29 0 10 -4 18
-10 18 -5 0 -10 -12 -10 -26 0 -23 -2 -25 -16 -13 -13 10 -17 10 -24 -1 -11
-18 -3 -30 21 -30 12 0 19 -7 19 -20 0 -13 -7 -20 -18 -20 -10 0 -23 -5 -30
-12 -8 -8 -12 -8 -12 -1 0 6 -14 -2 -31 -18 -32 -30 -49 -36 -49 -19 0 6 -10
4 -23 -5 -21 -14 -25 -13 -45 5 -27 26 -32 25 -32 -2 0 -13 -3 -33 -6 -46 -5
-18 -9 -20 -20 -11 -10 8 -14 8 -14 1 0 -7 -14 -5 -37 5 -21 9 -63 18 -93 20
-78 5 -133 14 -145 23 -5 5 -28 11 -50 15 -22 3 -51 12 -64 18 -19 9 -25 9
-28 0 -4 -10 -10 -10 -25 -2 -11 6 -31 9 -44 6 -15 -3 -28 1 -33 11 -5 8 -25
15 -50 17 -23 1 -47 7 -54 14 -6 6 -21 11 -34 11 -14 0 -23 6 -23 15 0 8 -4
15 -10 15 -5 0 -10 -7 -10 -15 0 -17 -25 -21 -35 -5 -3 5 -12 7 -20 3 -8 -3
-15 0 -15 6 0 6 -4 11 -10 11 -5 0 -10 -7 -10 -16 0 -16 -15 -16 -70 -1 -8 2
-12 2 -7 0 15 -9 7 -34 -10 -31 -10 2 -17 10 -16 16 4 16 -20 15 -35 0 -9 -9
-43 -13 -105 -12 -116 2 -122 3 -179 36 -26 16 -56 28 -68 28 -20 0 -48 46
-34 59 3 3 -11 11 -33 18 -26 8 -31 12 -15 12 27 1 30 21 3 21 -11 0 -22 9
-26 19 -3 11 -14 22 -23 24 -13 3 -9 7 13 16 17 7 51 23 77 35 38 19 44 25 28
29 -11 3 -20 1 -20 -4 0 -30 -59 20 -60 51 0 8 -16 26 -36 40 -51 36 -65 50
-59 61 4 5 -8 6 -27 3 -27 -6 -31 -4 -20 7 18 19 15 29 -8 29 -11 0 -20 -5
-20 -10 0 -7 -6 -7 -19 -1 -11 6 -29 7 -47 1 -16 -4 -45 -13 -65 -19 -20 -6
-44 -9 -52 -5 -11 4 -28 -5 -48 -26 -18 -17 -44 -36 -58 -41 -20 -8 -22 -12
-11 -19 12 -7 12 -12 -3 -28 -9 -10 -17 -26 -17 -35 0 -13 -10 -17 -42 -18
-24 -1 -35 -3 -25 -6 27 -7 9 -23 -26 -22 -26 0 -28 2 -12 8 19 8 19 8 -3 20
-13 7 -33 11 -45 9 -14 -2 -22 2 -22 11 0 18 -56 35 -66 20 -4 -6 -17 -1 -35
15 -19 17 -24 26 -14 26 22 1 -19 30 -42 30 -10 0 -24 12 -30 26 -11 24 -13
25 -25 8 -12 -16 -13 -15 -13 9 0 15 -4 27 -10 27 -5 0 -10 -5 -10 -11 0 -5
-5 -7 -10 -4 -6 4 -8 10 -5 15 3 5 -3 13 -13 19 -21 11 -62 4 -62 -11 0 -5 -5
-6 -10 -3 -15 9 12 33 64 56 77 34 68 46 -17 22 -13 -3 -20 2 -24 16 -3 12
-10 21 -17 22 -6 0 -30 2 -54 4 -42 3 -73 15 -39 15 10 0 17 5 17 10 0 6 -13
10 -29 10 -17 0 -32 4 -35 9 -3 4 -31 6 -62 4 -34 -2 -62 1 -70 8 -11 9 -14 8
-14 -2 -1 -10 -4 -9 -14 3 -12 16 -14 16 -29 0 -12 -12 -17 -13 -17 -3 0 9 -8
11 -27 7 -17 -5 -29 -3 -34 6 -6 9 -13 8 -28 -6 -12 -11 -21 -25 -21 -33 0 -7
-9 -13 -19 -13 -11 0 -26 -3 -34 -6 -12 -4 -14 0 -11 18 2 13 1 16 -3 8 -3 -8
-13 -20 -22 -27 -14 -11 -14 -12 2 -13 24 0 22 -20 -2 -20 -11 0 -23 -5 -26
-10 -4 -7 -12 -7 -25 0 -28 15 -50 13 -44 -5 8 -20 2 -19 -57 6 -52 23 -64 45
-26 52 16 3 13 5 -10 6 -20 0 -33 -4 -34 -11 -1 -7 -5 -2 -9 12 -5 17 -8 19
-9 8 -1 -10 -5 -18 -11 -18 -5 0 -10 8 -10 18 -1 28 -25 53 -38 40 -9 -9 -12
-7 -13 7 0 19 -1 19 -9 0 -7 -17 -9 -17 -9 -2 -1 9 -7 17 -15 17 -8 0 -13 8
-12 18 0 10 -6 16 -16 16 -12 -1 -18 5 -18 20 0 32 -12 44 -45 48 -25 2 -29 7
-27 25 2 15 -2 23 -11 23 -8 0 -29 16 -46 35 -24 28 -36 34 -54 29 -25 -6 -57
16 -57 39 0 7 -5 4 -11 -6 -6 -9 -7 -26 -4 -37 8 -25 -32 -50 -41 -25 -3 8
-10 12 -16 9 -5 -3 -7 -12 -4 -20 3 -8 0 -14 -6 -14 -7 0 -4 -6 7 -13 14 -11
17 -21 12 -46 -5 -21 -3 -30 4 -25 6 3 9 -1 7 -11 -2 -9 7 -24 19 -32 21 -14
23 -14 23 0 0 20 20 26 48 16 27 -10 21 -26 -16 -40 -23 -9 -24 -11 -10 -26
26 -25 69 -19 96 13 16 19 26 25 29 16 2 -6 9 -10 14 -7 5 4 6 -2 2 -11 -4
-12 -3 -15 5 -10 7 4 12 1 12 -8 0 -8 6 -17 13 -20 6 -4 2 -4 -11 -2 -14 3
-25 -1 -29 -10 -8 -21 6 -32 17 -14 8 12 10 10 10 -7 0 -13 -6 -23 -13 -23 -9
0 -14 -12 -14 -31 0 -27 3 -30 24 -24 22 5 23 4 11 -17 -23 -39 -36 -49 -61
-43 -24 6 -49 -9 -60 -37 -4 -10 -7 -10 -14 -1 -11 16 -56 5 -49 -12 6 -18 -5
-27 -19 -15 -22 18 -125 -5 -125 -29 0 -13 -13 -16 -81 -15 -44 0 -84 5 -87
11 -4 6 -17 13 -29 17 -13 4 -23 14 -23 22 0 23 -20 16 -21 -8 -1 -18 -2 -19
-6 -5 -3 10 -16 29 -30 43 -19 19 -24 33 -21 55 5 30 -6 40 -16 14 -4 -10 -14
-13 -36 -9 -32 7 -121 -13 -131 -29 -4 -5 -9 -5 -13 1 -4 7 19 19 60 32 69 21
168 70 159 78 -2 3 -11 -1 -20 -8 -9 -8 -27 -10 -48 -6 -23 4 -28 3 -17 -4 11
-7 12 -10 2 -10 -22 0 -52 20 -52 35 0 7 -6 16 -12 19 -7 3 -3 3 9 0 18 -4 22
-2 17 10 -4 11 -20 17 -48 17 -68 3 -74 4 -82 11 -4 5 6 8 22 8 22 0 26 3 14
10 -8 5 -27 10 -42 10 -22 0 -26 4 -21 17 6 15 4 16 -8 6 -13 -11 -15 -8 -11
17 3 18 0 30 -7 30 -6 0 -11 -9 -11 -20 0 -11 -4 -20 -10 -20 -5 0 -10 9 -10
20 0 11 -4 20 -10 20 -5 0 -10 -9 -10 -19 0 -11 -5 -23 -11 -27 -9 -5 -10 1
-5 20 4 15 2 26 -4 26 -5 0 -10 -4 -10 -10 0 -15 -58 -12 -63 3 -2 6 -2 -1 1
-18 4 -29 4 -30 -15 -13 -24 22 -40 24 -23 3 7 -9 10 -19 6 -22 -4 -4 -11 -1
-16 6 -5 8 -17 12 -30 8 -19 -5 -21 -3 -15 25 9 41 -12 28 -23 -14 -6 -23 -16
-34 -37 -40 -19 -5 -32 -3 -36 4 -6 9 -11 9 -21 0 -11 -9 -17 -9 -26 0 -8 8
-13 7 -17 -5 -3 -9 -7 -24 -10 -33 -3 -9 -8 -14 -11 -11 -4 3 -2 19 4 35 9 27
8 29 -10 24 -11 -3 -23 0 -27 6 -4 7 -12 8 -21 2 -13 -8 -12 -10 2 -10 17 0
33 -33 24 -49 -3 -5 -16 -7 -29 -3 -19 5 -20 3 -9 -10 11 -14 7 -17 -25 -23
-30 -5 -40 -3 -48 11 -5 9 -18 26 -27 36 -10 10 -18 22 -18 27 0 5 -7 14 -15
21 -13 11 -15 8 -15 -19 0 -41 -18 -40 -22 2 -3 35 -23 40 -23 5 0 -37 -25
-33 -26 4 -1 18 -3 25 -6 16 -2 -10 -11 -18 -19 -18 -23 0 -13 -33 14 -45 12
-5 22 -13 22 -18 0 -17 32 -39 56 -39 13 0 24 -4 24 -9 0 -4 16 -11 35 -15 19
-3 35 -10 35 -14 0 -4 11 -5 25 -2 14 2 25 0 25 -6 0 -9 91 -43 125 -47 6 -1
37 -5 70 -9 93 -11 103 -14 101 -32 -1 -9 -10 -22 -19 -29 -26 -19 -20 -25 16
-18 17 3 29 2 24 -2 -7 -8 69 -65 88 -65 6 0 22 7 38 14 23 13 27 13 27 0 0
-8 -4 -14 -10 -14 -5 0 -10 -5 -10 -10 0 -6 8 -10 18 -8 9 2 17 -3 16 -9 -1
-7 -2 -20 -2 -29 -1 -10 -8 -14 -17 -10 -10 4 -20 -6 -30 -30 -15 -36 -41 -39
-30 -3 4 11 2 19 -4 19 -6 0 -11 -4 -11 -10 0 -5 -6 -10 -14 -10 -7 0 -17 -10
-20 -22 -6 -21 -7 -22 -17 -5 -8 14 -14 15 -24 7 -9 -8 -20 -8 -32 -2 -10 5
-23 7 -29 5 -6 -2 -14 6 -17 18 -4 14 -11 20 -21 16 -8 -3 -18 -2 -22 4 -7 11
-45 2 -57 -15 -5 -6 -5 -1 -2 12 8 29 -10 52 -35 45 -30 -8 -24 4 11 23 30 15
30 16 12 29 -23 16 -74 15 -88 -2 -7 -9 -15 -10 -25 -3 -13 8 -12 10 3 10 10
0 15 5 12 10 -3 6 3 10 14 10 13 0 21 7 21 16 0 11 -6 15 -19 11 -14 -3 -18
-1 -14 10 5 12 0 14 -24 9 -32 -7 -48 9 -33 34 4 6 5 21 3 31 -4 15 -9 17 -19
8 -7 -6 -22 -8 -34 -4 -11 4 -20 2 -20 -4 0 -6 15 -15 32 -20 32 -9 33 -9 5
-10 -15 -1 -36 4 -46 11 -18 11 -18 12 -1 31 10 10 16 25 13 33 -7 19 -43 18
-43 -1 0 -20 -47 0 -78 34 -18 20 -25 22 -31 12 -5 -7 -14 -10 -20 -7 -14 9
-14 0 -1 -24 9 -16 7 -18 -12 -16 -13 1 -31 6 -40 10 -11 5 -23 2 -33 -7 -8
-8 -20 -18 -27 -21 -10 -5 -10 -7 0 -12 17 -8 15 -25 -3 -18 -8 4 -15 12 -15
19 0 7 -11 15 -25 17 -29 6 -31 1 -8 -24 15 -17 15 -18 0 -18 -10 0 -17 6 -17
13 0 7 -8 3 -16 -8 -11 -14 -18 -16 -21 -7 -6 14 -33 16 -33 2 0 -5 -8 -10
-19 -10 -10 0 -25 -10 -33 -22 -13 -19 -18 -21 -31 -10 -12 10 -16 10 -19 0
-4 -10 -8 -10 -21 1 -13 10 -17 10 -17 1 0 -7 -7 -10 -15 -6 -9 3 -15 0 -15
-9 0 -22 -14 -18 -25 8 -7 15 -20 23 -42 25 -35 3 -40 11 -21 30 9 9 9 12 -4
12 -8 0 -31 3 -49 6 -31 5 -32 4 -16 -9 9 -8 17 -17 17 -21 0 -11 -21 -6 -37
9 -8 8 -19 13 -24 9 -6 -3 -17 0 -25 7 -13 10 -14 -25 -12 -302 l3 -314 22 2
c18 2 22 -2 20 -19 -1 -11 5 -23 13 -26 13 -5 13 -3 1 11 -12 15 -11 17 3 17
9 0 16 -4 16 -10 0 -5 3 -9 8 -8 4 1 21 -5 38 -14 23 -13 34 -14 43 -5 8 8 11
7 11 -6 0 -10 5 -14 15 -11 9 4 15 0 15 -10 0 -20 17 -21 22 -2 4 19 48 2 48
-20 0 -13 -3 -14 -15 -4 -9 8 -15 8 -15 2 0 -15 22 -21 42 -10 14 7 16 5 12
-9 -5 -16 -4 -16 10 1 10 12 16 15 16 7 0 -9 10 -12 30 -9 22 3 31 0 36 -14 6
-19 64 -27 64 -8 0 6 10 10 23 10 16 0 18 -3 9 -9 -11 -7 -10 -10 3 -15 26
-10 115 -7 115 4 0 6 7 10 16 10 8 0 12 -4 9 -10 -8 -13 28 0 37 14 4 6 8 1 8
-11 0 -13 5 -23 10 -23 6 0 10 7 10 15 0 20 19 19 27 -1 5 -12 7 -13 14 -3 5
8 3 17 -4 21 -6 4 -9 9 -6 12 3 3 15 -3 27 -14 20 -19 27 -18 23 4 -1 5 11 6
26 3 17 -3 36 0 47 9 15 10 22 11 27 2 6 -9 17 -8 47 4 21 8 51 14 65 12 17
-2 27 2 27 11 0 7 7 16 16 19 23 9 31 7 14 -4 -8 -5 -11 -12 -7 -16 3 -4 13
-1 21 5 8 7 25 13 38 15 13 1 29 5 35 9 6 4 25 0 42 -9 32 -16 32 -16 67 20
20 21 33 43 30 51 -3 9 0 12 10 8 9 -3 12 -13 9 -24 -8 -25 30 -46 43 -23 6
11 14 14 23 8 8 -5 19 -9 24 -10 6 0 15 -2 21 -2 20 -3 25 -50 9 -88 -10 -25
-19 -34 -30 -30 -8 3 -15 2 -15 -2 0 -4 -21 -6 -46 -3 -25 2 -51 -2 -57 -8
-13 -13 -71 -15 -63 -3 3 5 -9 6 -27 4 -18 -3 -36 -11 -40 -18 -4 -8 -20 -14
-35 -14 -15 0 -43 -4 -62 -9 -45 -12 -98 -23 -131 -25 -14 -2 -30 -6 -36 -9
-5 -3 -30 -9 -54 -13 -24 -4 -50 -11 -56 -16 -7 -6 -28 -7 -48 -4 -22 5 -42 2
-57 -7 -41 -25 -354 -8 -365 20 -3 8 -13 11 -24 8 -11 -4 -19 -2 -19 5 0 6 -6
10 -13 9 -6 -1 -25 4 -42 11 -16 7 -32 14 -35 14 -3 1 -10 5 -17 9 -6 4 -18 4
-26 1 -8 -3 -21 3 -28 13 -8 10 -21 18 -29 19 -8 1 -25 4 -37 8 l-23 7 0 -870
0 -871 5040 0 c3341 0 5040 3 5040 10 0 6 -4 10 -10 10 -15 0 -12 26 5 40 8 7
12 16 9 21 -3 5 2 12 10 15 9 3 13 11 10 16 -4 6 16 8 57 4 91 -9 189 -10 196
-2 3 3 -3 6 -15 6 -12 0 -22 6 -22 14 0 12 -44 26 -92 30 -3 1 -10 4 -14 9 -4
4 -16 7 -26 7 -10 0 -18 7 -18 15 0 10 -10 15 -27 15 -22 0 -25 -2 -13 -10 8
-5 13 -10 10 -11 -3 0 -15 -2 -27 -5 -12 -2 -32 0 -45 6 -22 8 -22 9 6 9 33 1
28 13 -7 18 -12 2 -29 6 -37 9 -8 4 -31 9 -50 11 -19 2 -39 9 -45 15 -7 7 6 8
45 2 30 -4 91 -9 135 -9 44 -1 88 -5 98 -9 12 -6 23 -4 30 4 9 10 9 11 -2 5
-7 -4 -16 -3 -20 2 -3 6 -46 13 -96 16 -141 10 -205 19 -205 29 0 5 -5 6 -10
3 -6 -4 -24 -3 -41 0 -28 6 -29 8 -12 20 17 13 17 14 0 20 -9 4 -24 2 -32 -5
-12 -10 -15 -9 -15 8 0 28 -16 37 -23 12 -4 -17 -9 -19 -31 -10 -14 5 -56 13
-93 16 -46 5 -61 10 -48 15 11 4 30 5 43 2 12 -3 22 0 22 6 0 7 8 8 26 1 36
-14 54 -12 54 6 0 9 5 12 11 8 6 -4 81 -7 165 -8 84 -1 157 -5 160 -9 4 -4 31
-7 61 -7 37 0 53 4 53 13 0 9 -9 12 -29 9 -26 -4 -28 -2 -24 22 3 14 9 23 14
21 4 -3 40 0 79 6 92 15 78 34 -23 31 -50 -2 -68 1 -57 8 8 5 12 10 8 11 -5 1
-11 2 -15 4 -5 1 -32 5 -62 10 -40 6 -55 13 -59 27 -3 13 -10 17 -23 13 -11
-4 -19 -2 -19 3 0 5 9 12 19 15 20 5 43 -5 42 -18 -1 -5 21 -9 49 -9 27 -1 50
2 50 6 0 5 -7 8 -16 8 -8 0 -13 4 -10 9 10 15 -22 33 -59 33 -23 0 -35 5 -35
14 0 8 -7 14 -15 14 -9 0 -18 7 -21 15 -4 8 -14 15 -23 14 -10 0 -11 -2 -3 -6
6 -2 12 -9 12 -14 0 -9 -47 -5 -94 8 -32 9 2 21 80 29 64 7 68 6 55 -9 -12
-15 -10 -17 14 -17 23 0 26 2 15 15 -11 13 1 15 96 15 99 1 107 2 89 16 -11 8
-28 21 -38 29 -9 8 -33 15 -52 15 -19 0 -35 4 -35 9 0 5 60 7 133 6 127 -3
177 3 129 15 -30 7 -30 24 0 28 12 2 31 10 42 18 20 14 20 14 -1 14 -11 0 -26
7 -33 15 -10 12 -9 16 5 21 17 7 17 8 -1 21 -25 18 -9 16 33 -4 33 -15 36 -15
45 0 6 12 22 17 48 17 22 0 40 5 40 11 0 5 -12 9 -27 7 -16 -1 -66 1 -113 5
-47 4 -125 9 -175 12 -49 3 -137 10 -195 16 -58 6 -119 11 -137 11 -29 0 -31
2 -23 24 6 14 6 26 0 29 -10 6 -11 4 -14 -24 -2 -21 -82 -27 -89 -6 -4 8 -15
15 -25 15 -11 0 -25 7 -32 15 -7 8 -20 15 -30 15 -26 0 -82 25 -74 33 4 4 14
1 22 -6 12 -9 16 -9 19 1 7 20 50 14 56 -8 6 -24 48 -27 66 -6 13 16 -4 26
-45 26 -15 0 -24 6 -24 15 0 8 -9 15 -20 15 -11 0 -23 6 -26 14 -4 10 -16 13
-42 9 -30 -4 -34 -2 -22 7 13 10 12 11 -3 6 -10 -3 -21 -6 -24 -6 -2 0 3 -7
11 -16 20 -19 21 -35 1 -28 -17 7 -30 40 -26 71 3 28 -13 37 -40 22 -17 -8
-23 -8 -29 1 -5 7 -15 10 -24 7 -9 -4 -21 2 -30 15 -12 17 -18 19 -30 9 -9 -8
-32 -10 -67 -5 -30 4 -63 6 -74 6 -16 -1 -15 2 8 14 15 8 32 12 36 9 19 -11
101 -16 101 -5 0 6 10 8 23 5 12 -3 42 -2 65 3 24 6 42 6 42 1 0 -15 27 -10
34 6 4 11 21 15 63 15 32 0 70 7 86 14 19 11 27 12 27 3 0 -8 3 -7 9 2 6 9 19
12 38 8 16 -3 35 -2 43 4 10 6 11 9 3 9 -7 0 -13 9 -13 20 0 11 3 20 8 20 4 0
23 14 42 30 19 16 44 30 54 30 31 0 13 10 -20 11 -16 0 -47 5 -69 9 -22 5 -52
11 -67 15 -32 6 -38 25 -8 25 11 0 23 7 26 15 7 17 40 20 49 5 5 -8 11 -8 20
0 17 14 134 18 139 5 3 -6 9 -3 15 5 8 11 13 12 19 4 9 -14 51 -13 55 1 1 6
-10 11 -25 13 -16 2 -28 8 -28 13 0 5 -6 9 -14 9 -7 0 -19 6 -26 14 -6 8 -24
16 -38 18 -35 4 -35 22 1 26 16 2 27 -1 27 -9 0 -8 4 -9 13 0 10 8 23 6 52 -9
43 -22 65 -25 65 -10 0 6 -9 10 -20 10 -18 0 -29 19 -12 21 8 1 65 6 107 9 28
2 27 3 -15 16 -44 14 -140 25 -232 28 -26 1 -50 4 -53 8 -6 6 84 14 184 17 47
2 61 7 61 22 0 5 -30 9 -68 9 -121 0 -545 40 -621 59 -113 27 -102 40 28 36
62 -2 113 1 116 6 6 8 -11 13 -42 12 -7 -1 -13 3 -13 7 0 4 -6 8 -12 7 -50 -2
-68 4 -68 22 0 10 8 22 17 25 12 5 14 9 5 18 -18 18 -14 35 8 41 13 3 18 1 13
-6 -4 -7 0 -8 12 -4 9 4 23 3 29 -2 14 -12 54 -9 80 6 16 9 12 11 -28 17 -35
6 -46 11 -42 22 7 18 -31 38 -66 36 -16 -1 -28 2 -28 6 0 10 95 22 166 22 24
0 44 4 44 9 0 5 15 12 33 16 l32 7 -25 10 -25 10 35 12 c19 8 43 17 52 21 12
5 20 2 24 -9 3 -9 10 -16 15 -16 4 0 6 6 3 14 -3 9 3 17 16 21 33 11 15 19
-36 16 l-46 -2 7 30 c4 21 3 31 -5 31 -6 0 -9 4 -6 9 7 11 -18 21 -55 21 -16
0 -29 5 -29 10 0 6 13 10 28 10 16 0 36 8 45 18 20 22 21 29 4 46 -14 14 -55
20 -242 36 -233 19 -298 38 -219 65 17 6 42 18 56 27 22 15 27 15 32 3 3 -8
13 -15 22 -15 10 0 14 5 10 15 -4 12 5 15 55 15 38 0 58 4 54 10 -3 6 -32 10
-63 10 -31 0 -63 4 -70 9 -9 5 0 8 26 8 22 0 46 4 53 9 8 5 33 9 55 10 57 2
68 10 49 37 -12 17 -26 21 -86 23 -40 1 -84 6 -98 10 l-26 7 25 6 c16 5 25 14
25 26 0 13 6 20 17 19 10 -1 15 2 12 7 -3 5 2 9 10 9 9 0 16 -4 16 -9 0 -5 12
-11 28 -13 15 -2 26 -8 25 -14 -2 -13 85 -1 117 16 13 7 37 9 57 5 27 -5 34
-3 31 7 -3 8 -21 13 -49 13 -37 0 -44 3 -44 20 0 17 -8 20 -54 23 -51 3 -53 4
-30 16 13 7 23 19 21 29 -2 13 8 17 60 19 l63 3 -40 18 c-25 11 -41 14 -43 8
-2 -7 -9 -5 -17 3 -11 10 -32 12 -82 8 -60 -4 -67 -3 -55 10 11 14 139 36 167
29 6 -2 39 -5 75 -7 61 -4 67 -2 100 25 l35 30 -51 -6 c-66 -7 -94 7 -94 48 0
28 -2 30 -32 27 -19 -2 -33 2 -35 10 -3 8 10 12 45 12 68 0 142 11 142 21 0 5
-15 13 -32 18 -18 5 -26 10 -18 11 22 3 -60 21 -92 20 -16 0 -28 4 -28 10 0 5
20 10 45 10 25 0 45 5 45 10 0 6 9 10 19 10 27 0 34 28 12 42 -11 6 -17 17
-14 23 2 7 -6 15 -19 19 -33 8 -36 8 -41 -9 -4 -11 -5 -10 -3 2 0 10 12 23 26
30 25 13 25 13 -8 13 -35 0 -92 27 -92 43 0 6 104 7 253 4 161 -4 229 -2 187
3 -36 5 -81 14 -100 19 -19 6 -50 11 -67 11 -18 0 -33 5 -33 11 0 8 18 10 58
6 72 -7 118 7 57 17 -70 13 -86 25 -32 25 26 1 47 6 47 11 0 6 -26 10 -57 10
-31 0 -53 3 -49 8 4 4 40 7 78 7 49 0 73 4 76 13 3 9 -3 11 -24 6 -22 -6 -26
-4 -21 8 4 12 -7 17 -61 22 -37 4 -79 7 -93 6 -18 0 -29 7 -38 26 -17 37 9 64
60 64 21 0 40 4 44 9 8 14 -24 41 -50 41 -12 0 -26 7 -29 15 -5 14 19 15 212
11 119 -3 350 -8 512 -11 162 -3 399 -10 525 -15 127 -5 298 -12 380 -16 395
-15 435 -19 452 -43 11 -16 18 -20 26 -12 13 13 47 15 47 3 0 -17 -52 -32
-110 -32 -39 0 -60 -4 -60 -12 0 -6 3 -9 6 -5 3 3 23 -1 44 -8 21 -7 51 -12
66 -10 26 2 27 2 9 -11 -22 -16 -41 -18 -50 -4 -10 16 -19 12 -30 -12 -6 -13
-30 -33 -55 -46 -24 -12 -41 -23 -37 -23 4 -1 12 -3 17 -4 6 -1 13 -3 16 -4 3
0 -2 -8 -11 -17 -14 -14 -29 -16 -91 -11 -84 8 -103 -7 -21 -16 67 -8 127 -25
127 -37 0 -6 -9 -10 -20 -10 -11 0 -20 4 -20 9 0 9 -73 6 -90 -4 -6 -4 -16 -2
-23 3 -7 5 -32 13 -55 17 -44 7 -44 7 -40 -21 l3 -29 -68 -1 c-37 0 -70 3 -73
8 -3 5 -11 5 -17 1 -7 -5 -50 -10 -97 -13 -70 -4 -43 -7 155 -18 132 -7 353
-20 491 -29 l251 -17 -7 -25 c-6 -23 -12 -26 -51 -27 -24 -1 -49 3 -56 8 -7 5
-14 5 -17 -1 -4 -5 -20 -9 -36 -9 -49 2 -56 -22 -8 -27 13 -1 27 -3 32 -4 5 0
3 -7 -3 -15 -9 -11 -7 -15 11 -20 36 -9 118 -7 118 4 0 5 7 7 15 4 8 -4 15
-12 15 -20 0 -10 -27 -14 -122 -16 -93 -2 -122 -6 -120 -16 1 -7 -6 -16 -15
-19 -15 -6 -14 -8 7 -13 l24 -6 -24 -24 c-13 -13 -19 -25 -13 -27 6 -2 9 -12
6 -23 -3 -10 -11 -16 -18 -14 -7 3 -22 -8 -34 -24 -27 -39 -26 -43 4 -29 14 7
25 19 25 26 0 12 3 12 12 3 7 -7 20 -12 30 -12 10 0 18 -4 18 -10 0 -5 -13 -7
-30 -5 -41 5 -46 -10 -13 -39 l28 -24 -28 -7 c-16 -4 -60 -5 -98 -3 -38 3 -69
1 -69 -3 0 -5 18 -9 40 -9 44 0 110 -23 110 -38 0 -15 -24 -31 -50 -34 -25 -3
-60 -26 -60 -40 0 -5 17 -8 38 -8 51 0 80 -19 32 -21 -19 -1 -39 -3 -45 -4 -5
-2 -32 -3 -60 -4 -66 -1 -47 -19 30 -26 51 -6 86 -10 104 -14 2 -1 -2 -8 -9
-17 -11 -13 -10 -16 8 -21 17 -4 22 -13 22 -39 0 -19 3 -34 8 -34 4 0 22 -13
39 -29 18 -16 47 -33 65 -37 l33 -7 -30 -9 c-16 -6 -52 -15 -79 -22 l-49 -12
39 -11 c22 -7 52 -15 68 -18 15 -3 25 -9 21 -13 -10 -10 -130 -33 -199 -37
-63 -4 -87 -14 -40 -17 54 -2 59 -4 56 -16 -1 -7 9 -12 23 -12 19 0 25 -5 23
-17 -3 -17 43 -36 67 -27 7 3 18 -4 25 -15 7 -13 21 -21 38 -21 21 0 24 -2 12
-10 -8 -5 -60 -10 -115 -10 -95 0 -98 -1 -82 -17 16 -16 19 -16 28 -3 8 11 12
12 16 3 2 -7 18 -13 33 -13 16 0 32 -4 35 -10 3 -5 16 -10 28 -10 49 1 101 -8
104 -17 2 -5 -10 -8 -26 -5 -16 2 -32 -1 -35 -7 -5 -7 5 -11 28 -11 53 0 53
-18 -1 -25 -77 -10 -94 -15 -88 -26 4 -5 14 -9 23 -8 34 5 112 -12 112 -25 0
-18 128 -39 228 -37 65 2 82 -1 82 -12 0 -9 -10 -13 -32 -12 -18 1 -61 -2 -97
-7 -96 -13 -124 -16 -146 -18 -38 -2 9 -19 66 -24 30 -3 86 -8 124 -12 140
-14 135 -50 -6 -40 -81 6 -97 -4 -42 -25 34 -13 24 -21 -15 -13 -18 4 -32 13
-32 20 0 8 -4 14 -10 14 -5 0 -10 -9 -10 -21 0 -16 -4 -19 -22 -13 -13 3 -28
11 -35 16 -7 6 -14 5 -18 -2 -4 -6 -12 -10 -18 -9 -27 3 -36 -2 -34 -22 1 -16
6 -19 27 -14 19 4 21 3 10 -5 -13 -8 -13 -10 1 -10 9 0 22 -7 29 -15 7 -8 25
-15 39 -15 15 0 36 -7 47 -16 18 -14 17 -15 -16 -9 -19 3 -45 7 -56 8 -12 1
-31 11 -43 21 -16 15 -24 17 -33 8 -15 -15 7 -42 36 -43 11 0 15 -3 8 -6 -23
-9 -82 7 -82 22 0 10 -11 15 -35 15 -34 0 -47 13 -22 23 7 3 5 6 -5 6 -10 1
-18 -4 -18 -10 0 -7 -10 -21 -22 -32 -22 -19 -32 -19 -228 -13 -187 6 -250 1
-149 -13 47 -7 52 -21 15 -39 -27 -14 -33 -27 -16 -37 6 -3 10 -1 10 4 0 16
20 13 26 -3 3 -8 -4 -25 -16 -38 -17 -18 -20 -30 -15 -57 10 -51 25 -71 47
-60 12 6 25 6 36 0 10 -6 29 -7 42 -4 22 6 22 6 4 -16 -14 -15 -30 -21 -61
-21 -32 0 -43 -4 -43 -15 0 -8 7 -15 16 -15 8 0 12 -4 9 -10 -3 -5 -19 -10
-36 -10 -24 0 -29 -4 -29 -26 0 -21 4 -24 20 -19 16 5 20 2 20 -19 0 -14 4
-26 9 -26 5 0 7 9 4 20 -3 11 0 20 6 20 6 0 14 -18 17 -40 4 -22 11 -37 15
-34 5 3 7 10 4 15 -4 5 -3 15 2 22 5 8 9 2 13 -17 4 -25 10 -29 40 -31 67 -5
111 -13 124 -24 9 -8 16 -7 25 2 10 9 11 9 6 -4 -3 -9 1 -22 10 -29 13 -11 15
-9 15 9 0 12 5 19 10 16 6 -3 10 -18 10 -33 1 -25 2 -25 14 -9 10 13 21 15 45
11 17 -4 34 -11 37 -16 3 -5 21 -6 40 -2 30 5 34 4 34 -14 0 -19 -3 -20 -32
-11 -18 6 -37 11 -43 12 -5 2 -15 6 -21 10 -7 4 -17 0 -23 -7 -10 -12 -7 -15
16 -19 26 -4 26 -4 -5 -6 -28 -1 -33 -4 -30 -23 2 -16 -4 -23 -27 -30 -16 -4
-38 -5 -48 -2 -10 3 -25 0 -34 -8 -13 -10 -17 -10 -20 0 -6 17 -23 15 -23 -3
0 -8 6 -14 12 -13 7 2 13 -4 13 -12 0 -8 -4 -15 -10 -15 -5 0 -16 -4 -22 -8
-9 -6 -13 -2 -13 12 0 12 -6 21 -14 21 -24 0 -28 -18 -12 -42 9 -12 16 -31 16
-42 0 -18 -7 -19 -190 -13 -121 4 -190 3 -190 -3 0 -6 -26 -11 -57 -11 l-58
-1 70 -12 70 -12 -70 -5 c-38 -3 -74 -2 -80 2 -5 4 -19 9 -30 12 -19 5 -19 5
3 12 12 4 22 11 22 16 0 5 21 6 48 3 37 -4 43 -3 29 6 -9 6 -43 10 -75 8 -55
-3 -57 -4 -55 -31 2 -25 -1 -27 -38 -27 -43 0 -49 -14 -15 -34 14 -8 20 -8 23
2 6 15 70 16 75 1 4 -12 27 -16 220 -33 78 -8 129 -14 111 -15 -44 -1 -34 -31
11 -32 17 0 49 -6 71 -13 35 -11 37 -14 20 -21 -11 -5 -31 -17 -45 -27 -22
-16 -32 -17 -85 -7 -33 6 -64 17 -68 25 -10 18 -96 19 -103 1 -5 -15 -70 -11
-80 5 -3 5 -14 2 -25 -8 -18 -17 -20 -16 -33 2 -14 18 -15 18 -21 1 -4 -10
-18 -17 -32 -17 -13 0 -21 4 -18 10 3 6 2 10 -4 10 -5 0 -11 -5 -13 -11 -5
-16 -48 -1 -48 17 0 8 -4 14 -10 14 -5 0 -10 -7 -10 -15 0 -10 -10 -15 -27
-16 -28 0 -28 -1 -5 -11 12 -6 22 -17 22 -25 0 -7 7 -13 15 -13 8 0 15 7 15
15 0 18 -2 18 95 4 41 -5 110 -11 153 -13 42 -1 84 -5 92 -9 8 -3 28 -8 44
-12 22 -5 27 -3 23 8 -9 24 46 18 79 -8 l29 -23 -29 5 c-16 3 -26 2 -23 -3 3
-5 -18 -9 -46 -8 -29 0 -77 -2 -107 -6 -52 -7 -53 -8 -15 -10 22 -1 64 -4 93
-5 29 -1 56 -5 59 -9 3 -3 22 -6 42 -7 20 0 45 -4 56 -9 16 -7 12 -9 -20 -9
-30 -1 -36 -4 -25 -11 20 -13 80 -13 80 0 0 6 10 4 23 -4 31 -20 87 -30 87
-17 0 6 5 11 10 11 7 0 7 -7 -1 -21 -8 -15 -8 -24 0 -32 18 -18 13 -29 -10
-22 -13 4 -27 1 -39 -10 -11 -10 -24 -14 -31 -9 -9 5 -8 9 6 14 13 5 4 9 -30
13 -26 4 -50 5 -53 2 -3 -3 7 -14 22 -26 19 -15 25 -27 20 -41 -4 -13 -2 -18
4 -14 6 3 14 1 18 -5 5 -9 -7 -10 -47 -5 -35 5 -50 4 -44 -2 10 -10 104 -22
197 -26 27 -2 51 -6 54 -9 4 -4 18 -4 30 -1 13 4 24 2 24 -2 0 -13 168 -16
175 -4 10 16 38 12 32 -5 -4 -8 -2 -17 3 -20 4 -3 10 0 12 5 5 15 68 24 68 11
0 -6 -10 -11 -22 -12 -14 0 -17 -2 -8 -6 42 -14 41 -17 -5 -22 -63 -7 -127 -2
-119 10 6 11 -14 11 -41 0 -11 -5 -25 -4 -32 1 -12 10 -80 1 -88 -12 -3 -4 6
-11 20 -14 14 -4 25 -11 25 -16 0 -6 7 -10 16 -10 9 0 14 -6 12 -12 -6 -17
-120 -23 -159 -9 -16 5 -29 6 -29 2 0 -8 -106 -6 -173 4 -24 3 -36 2 -32 -4 6
-10 38 -18 110 -25 22 -3 40 -5 40 -6 0 -2 99 -12 118 -12 29 1 19 -18 -13
-25 -16 -3 -30 -12 -30 -19 0 -24 -31 -12 -44 16 -3 8 -4 5 -2 -8 3 -15 -1
-22 -11 -22 -10 0 -13 -6 -9 -16 10 -27 -4 -35 -33 -20 -23 12 -30 13 -42 2
-19 -18 -66 -28 -74 -17 -3 5 -1 12 5 16 20 12 10 25 -20 25 -32 0 -40 -14
-15 -24 8 -3 15 -12 15 -21 0 -10 10 -15 34 -15 19 0 37 4 40 9 3 5 25 5 48 0
24 -4 2011 -8 4416 -9 l4372 0 0 206 0 207 -37 -6 c-206 -33 -420 -33 -523 -1
-30 9 -64 18 -75 19 -16 1 -20 9 -20 41 0 29 -4 38 -15 36 -23 -5 -50 -33 -43
-45 3 -5 0 -7 -8 -5 -15 5 -15 13 -4 69 5 29 3 37 -10 43 -23 9 -42 -9 -50
-45 -6 -24 -9 -28 -21 -18 -15 12 -19 39 -6 39 15 0 30 48 19 59 -16 16 -37
14 -43 -4 -9 -21 -31 -19 -44 5 -12 23 -3 45 32 75 22 19 22 20 3 23 -11 2
-28 11 -37 19 -9 8 -21 12 -26 9 -15 -9 -34 21 -27 43 3 10 2 22 -3 25 -12 7
-23 -56 -11 -68 5 -5 1 -15 -9 -23 -12 -11 -14 -16 -4 -19 6 -3 10 -10 7 -15
-4 -5 8 -24 24 -41 17 -18 37 -47 45 -63 19 -40 50 -67 109 -95 26 -13 47 -27
47 -32 0 -4 7 -8 15 -8 27 0 5 -26 -41 -48 -53 -26 -54 -26 -54 -7 0 8 -6 15
-13 15 -16 0 -47 -32 -47 -48 0 -16 -39 -25 -54 -13 -6 5 -22 8 -34 4 -12 -3
-30 -2 -39 2 -10 5 -33 9 -51 10 -28 2 -32 -1 -30 -19 4 -26 -31 -35 -44 -12
-5 9 -19 16 -31 16 -12 0 -32 12 -44 28 l-23 27 -20 -24 c-11 -12 -17 -27 -14
-32 3 -5 -6 -9 -20 -9 -14 0 -29 -1 -33 -2 -4 -2 -14 10 -21 25 -12 26 -18 28
-48 23 -30 -6 -35 -4 -49 24 -12 24 -21 30 -36 25 -25 -8 -61 3 -53 17 4 7 2
8 -5 4 -6 -4 -18 0 -27 8 -8 9 -24 16 -34 16 -13 0 -17 5 -14 15 3 8 2 20 -2
27 -6 9 -10 4 -14 -17 -4 -24 0 -35 26 -57 18 -16 36 -28 42 -28 6 0 14 -4 17
-10 9 -15 -36 4 -86 35 -39 25 -44 26 -92 14 -107 -26 -384 3 -567 60 -36 11
-99 29 -140 40 -41 10 -127 33 -190 51 -185 51 -496 130 -625 160 l-120 27 3
36 c5 57 -16 142 -44 174 -14 15 -32 38 -41 50 -8 12 -23 25 -34 28 -10 4 -19
13 -19 22 0 9 -6 13 -15 9 -8 -3 -15 -1 -15 3 0 13 -78 48 -123 57 -21 3 -35
9 -32 12 12 12 225 11 302 -1 56 -9 86 -10 93 -3 7 7 10 7 10 0 0 -18 196 -69
205 -53 3 4 14 0 24 -10 10 -10 38 -21 62 -25 24 -4 87 -20 139 -36 109 -35
111 -35 104 -15 -5 11 1 15 24 15 54 0 116 -34 117 -64 0 -12 92 -45 125 -45
l25 0 -27 15 c-39 21 -36 38 5 27 17 -4 51 -8 74 -8 31 0 43 -4 46 -17 3 -9
-2 -19 -11 -23 -14 -5 -14 -7 -2 -15 9 -5 19 -5 27 2 10 8 12 7 8 -5 -8 -20
53 -36 65 -17 5 8 19 11 36 8 16 -3 38 -2 49 2 19 8 19 9 -2 9 -12 1 -25 6
-29 12 -5 8 13 9 64 4 45 -4 77 -3 90 4 26 14 48 5 55 -20 6 -21 -3 -25 -19
-9 -11 11 -44 3 -44 -10 0 -12 49 -22 71 -15 12 4 22 19 26 36 5 24 11 29 37
30 17 1 23 3 13 6 -9 2 -15 8 -12 13 3 5 1 11 -5 15 -5 3 -10 0 -10 -7 -1 -9
-4 -8 -13 3 -17 22 -55 41 -59 29 -2 -6 -9 -6 -18 0 -12 7 -12 13 -1 33 7 13
11 35 9 48 -4 24 -5 24 -12 -4 -10 -34 -64 -97 -84 -97 -8 0 -12 6 -9 15 4 8
2 17 -3 20 -6 4 -10 -1 -10 -9 0 -9 -4 -16 -10 -16 -5 0 -10 5 -10 11 0 7 -11
9 -27 5 -16 -3 -22 -3 -15 0 6 3 12 10 12 15 0 13 -37 11 -46 -2 -5 -8 -9 -8
-14 1 -9 14 -80 31 -80 19 0 -5 -11 -4 -24 1 -13 5 -43 12 -67 15 -24 4 -50
14 -59 23 -9 10 -26 16 -43 14 -18 -2 -29 2 -33 12 -3 9 -10 16 -16 16 -5 0
-6 -4 -3 -10 3 -5 -3 -10 -15 -10 -12 0 -18 5 -15 10 3 6 -3 11 -14 11 -33 2
-39 4 -47 11 -4 5 -24 8 -45 8 -21 0 -41 4 -44 10 -3 5 -17 10 -31 10 -13 0
-24 3 -24 8 0 4 -32 8 -72 9 -44 2 -75 7 -81 15 -7 11 -10 10 -14 0 -4 -10 -8
-10 -19 -1 -9 8 -57 12 -132 13 -64 1 -123 5 -131 10 -8 5 -16 5 -20 -1 -7
-11 -44 -26 -37 -15 2 4 -43 7 -102 7 -59 -1 -118 3 -132 8 -15 5 -26 4 -28
-2 -2 -6 -18 -4 -43 4 -41 15 -69 11 -69 -9 0 -15 -83 -14 -102 2 -20 16 -154
9 -150 -7 3 -16 -34 -13 -48 4 -11 13 -14 13 -27 0 -8 -8 -22 -15 -31 -14 -14
0 -13 2 3 9 17 7 14 9 -13 9 -20 1 -31 -3 -27 -9 4 -6 -5 -5 -20 2 -22 10 -28
9 -36 -3 -8 -12 -12 -11 -24 5 -8 11 -15 15 -15 9 0 -10 -27 -22 -61 -27 -11
-2 -15 3 -11 16 2 10 -1 18 -7 18 -6 0 -11 -6 -11 -13 0 -7 -12 -29 -26 -50
l-25 -38 33 4 c19 2 38 6 43 9 20 10 117 9 110 -1 -3 -6 -4 -11 -2 -11 5 0 66
19 87 28 26 10 60 11 60 2 0 -4 -6 -11 -12 -14 -9 -3 -8 -8 5 -16 9 -6 15 -16
11 -21 -3 -6 -3 -21 0 -35 5 -17 13 -24 31 -24 18 0 23 -4 18 -15 -3 -10 0
-15 8 -13 9 2 15 -7 17 -24 8 -64 97 -103 137 -58 19 21 25 88 12 130 -8 25
-8 25 7 -1 15 -25 20 -27 81 -25 42 1 65 -2 65 -9 0 -6 5 -16 12 -23 7 -7 12
-24 13 -39 0 -14 6 -28 14 -31 10 -3 11 0 5 9 -5 8 -7 22 -6 32 2 10 -2 25 -8
33 -22 26 14 16 40 -11 18 -19 20 -27 11 -38 -18 -22 3 -67 31 -67 13 0 30 -4
38 -10 12 -8 12 -10 -3 -16 -10 -4 -23 -2 -30 5 -12 12 -28 15 -25 4 1 -5 -2
-26 -6 -48 l-7 -40 -90 -2 c-109 -2 -252 -22 -494 -69 -475 -93 -605 -106
-791 -81 -143 20 -212 43 -444 150 -228 104 -410 156 -584 165 -217 12 -359
-24 -632 -161 -141 -70 -164 -86 -187 -121 -14 -23 -46 -61 -70 -85 l-45 -45
14 -38 c7 -22 16 -61 20 -88 7 -55 -5 -80 -39 -80 -21 0 -21 0 1 20 21 20 31
47 13 36 -5 -4 -7 2 -4 13 3 10 -1 22 -8 27 -24 14 -192 22 -214 10 -23 -14
-36 -13 -91 2 -22 7 -59 11 -82 9 -34 -2 -42 -6 -43 -22 -1 -12 -5 -6 -11 15
-6 19 -14 44 -18 55 -38 89 -52 213 -29 241 9 11 7 25 -9 62 -11 26 -27 78
-37 116 -15 64 -15 73 0 137 13 51 26 77 51 103 19 20 39 36 44 36 16 0 11 19
-9 39 -26 26 -103 263 -104 321 0 27 7 66 17 89 16 34 17 47 8 83 -6 24 -9 53
-6 63 3 12 -38 132 -94 280 -270 709 -438 1139 -478 1220 -24 50 -52 125 -64
168 -11 42 -44 139 -74 215 -79 199 -175 449 -196 507 -10 28 -27 73 -38 100
-22 56 -66 171 -111 289 -17 44 -29 82 -26 84 5 6 35 -54 35 -72 0 -8 3 -17 8
-19 15 -10 6 79 -11 113 -12 23 -17 53 -16 86 3 52 -6 78 -22 69 -15 -10 -10
15 6 31 22 22 18 60 -7 84 -18 17 -19 20 -5 20 9 0 17 3 17 8 -1 17 -81 125
-101 136 -13 7 -30 35 -45 76 -23 62 -23 71 -14 190 11 143 28 264 41 298 5
13 9 31 9 40 -1 20 -30 -56 -30 -78 -1 -44 -50 -49 -50 -5 0 12 -6 28 -14 34
-8 6 -17 36 -21 66 -3 30 -10 55 -15 55 -4 0 -6 9 -3 21 4 12 0 25 -8 30 -8 5
-9 9 -3 9 14 0 -5 77 -20 83 -6 2 0 2 12 0 24 -4 24 -3 -4 22 -15 14 -24 28
-21 32 4 3 19 -4 33 -18 l26 -24 -13 28 c-7 15 -17 27 -22 27 -6 0 -7 3 -4 6
5 6 -63 145 -82 166 -3 4 -5 -28 -3 -70 2 -42 -1 -88 -7 -102 l-10 -25 0 28
c-1 28 -16 37 -24 15 -2 -7 -6 8 -8 35 -3 35 -1 46 8 42 7 -2 13 0 13 4 0 5
-6 11 -13 14 -9 3 -13 62 -15 241 l-3 236 30 0 c30 0 31 2 31 43 0 47 12 73
29 63 20 -13 24 24 5 45 -24 27 -23 124 1 175 16 34 16 34 -16 62 -27 23 -78
47 -85 39 -1 -1 -31 -64 -67 -140 -65 -135 -66 -138 -51 -172 19 -47 18 -57
-8 -53 -20 3 -23 -1 -23 -32 0 -31 -3 -35 -27 -38 -32 -4 -31 4 -29 -232 2
-141 -10 -362 -17 -322 -3 22 -5 22 -16 6 -11 -15 -14 -8 -21 47 -7 55 -9 60
-15 34 -4 -16 -9 -57 -10 -90 -3 -59 -3 -59 -11 25 -4 47 -7 142 -8 213 l-1
127 25 0 c14 0 25 5 25 10 0 6 -12 10 -26 10 -21 0 -23 2 -12 13 7 7 24 18 38
24 24 11 23 12 -17 12 l-43 1 0 45 c0 31 5 47 17 53 15 9 14 10 -3 15 -24 7
-1433 14 -1435 7 -1 -3 1 -26 5 -52 l7 -48 122 -2 c67 -1 377 -2 689 -3 312
-1 571 -5 575 -9 5 -4 9 -303 9 -664 1 -362 5 -667 9 -679 4 -14 15 -23 29
-23 11 0 31 -3 42 -6 15 -4 28 1 42 16 l20 21 1 -75 c1 -42 -3 -77 -9 -81 -6
-3 -8 -10 -5 -15 3 -5 -10 -12 -30 -16 -19 -3 -32 -10 -29 -15 3 -5 9 -7 13
-5 4 3 13 1 21 -5 12 -7 10 -9 -7 -9 -27 0 -31 -17 -5 -23 9 -3 1 -5 -18 -6
-24 -1 -41 5 -53 19 -16 19 -16 20 8 20 14 0 25 5 25 10 0 6 -15 10 -32 10
-18 0 -42 7 -52 15 -31 23 -64 18 -131 -20 -61 -34 -64 -34 -181 -35 -65 0
-213 -3 -328 -6 -163 -4 -217 -2 -250 9 -27 9 -76 13 -147 11 l-107 -3 -65 39
c-65 39 -67 40 -164 40 -64 0 -103 4 -111 12 -7 7 -12 37 -12 67 0 56 12 92
24 73 8 -13 69 -24 90 -16 10 4 15 13 12 20 -3 8 0 14 8 14 13 0 13 239 -3
910 l-8 315 -1 -320 c-2 -329 -9 -455 -23 -455 -5 0 -9 39 -9 86 0 50 -4 83
-9 79 -5 -3 -8 -43 -6 -90 2 -47 -1 -88 -6 -91 -5 -3 -9 -26 -9 -51 0 -26 -2
-44 -5 -42 -2 3 -7 97 -10 209 -3 113 -8 219 -10 235 -2 17 -5 127 -5 245 -1
118 -4 257 -7 308 l-6 92 -33 0 c-31 0 -34 3 -34 29 0 21 19 53 67 113 36 45
67 84 69 86 4 7 120 31 147 32 15 0 27 5 27 10 0 13 -40 29 -102 40 -89 17
-129 47 -168 127 -12 23 -50 67 -88 99 -37 31 -116 104 -177 161 -110 105
-171 152 -275 211 -31 17 -65 42 -78 56 -12 14 -27 26 -33 26 -6 0 -9 7 -5 15
3 10 -10 25 -39 45 -24 16 -46 35 -48 42 -3 7 -6 3 -6 -9 -1 -13 -4 -23 -7
-23 -3 0 -34 24 -69 52 -62 52 -63 53 -44 71 10 10 19 24 19 31 0 8 9 16 20
19 11 3 25 18 32 33 7 15 23 38 36 51 12 12 22 28 22 35 1 23 30 -25 30 -49 0
-13 4 -23 9 -23 5 0 21 -24 35 -52 34 -72 91 -108 171 -108 47 0 62 5 89 27
17 14 26 24 21 22 -104 -42 -104 -42 -151 -29 -48 14 -100 57 -121 101 -58
121 -61 132 -41 164 10 17 18 24 18 18 0 -7 9 -13 19 -13 11 0 23 -4 26 -10 3
-5 11 -10 16 -10 5 0 -2 12 -16 27 -31 34 -33 57 -5 48 15 -5 20 -2 20 13 0
11 -5 22 -12 24 -7 3 -4 15 11 35 13 17 20 36 17 42 -4 5 5 18 19 27 14 9 24
19 21 21 -2 3 0 18 4 34 5 17 5 29 -1 29 -5 0 -9 12 -9 28 l0 27 -20 -30 c-11
-16 -18 -36 -15 -42 2 -7 0 -12 -5 -10 -5 1 -16 -7 -25 -18 -9 -11 9 30 38 90
134 273 216 483 327 840 37 118 186 720 244 982 72 327 160 790 196 1023 5 30
38 231 73 445 36 215 72 442 81 505 9 63 23 164 31 224 9 61 18 149 22 197 4
64 10 90 21 94 12 4 14 -8 11 -74 -3 -58 -1 -77 8 -74 18 7 23 30 28 129 5 89
47 330 61 342 4 4 4 -6 2 -21 -6 -29 12 -57 35 -57 8 0 8 3 -1 9 -10 6 -5 11
16 20 17 7 32 22 35 33 3 11 15 22 26 25 12 3 21 9 21 14 0 5 7 9 15 9 8 0 15
-4 15 -10 0 -5 9 -2 20 7 23 20 26 39 8 46 -8 2 -9 8 -4 13 5 5 11 4 13 -3 3
-7 11 -13 18 -13 7 0 16 6 18 13 3 6 4 -4 1 -23 -3 -28 -2 -30 4 -10 4 14 14
26 22 28 16 2 66 -65 62 -84 -1 -6 9 -19 23 -28 14 -9 24 -24 23 -33 -2 -9 3
-18 10 -20 6 -3 12 0 12 6 0 6 4 11 9 11 4 0 6 -11 3 -25 -3 -18 2 -31 16 -43
11 -10 24 -30 27 -45 4 -15 15 -32 25 -37 16 -9 18 -5 14 33 -4 33 -2 37 5 20
16 -35 30 -131 35 -234 5 -103 34 -271 46 -264 6 4 2 55 -14 163 -3 17 -1 32
3 32 5 0 11 -21 14 -47 21 -187 101 -673 146 -883 44 -205 64 -275 72 -255 7
19 8 19 8 -2 1 -12 -4 -25 -11 -29 -7 -5 -5 -11 8 -21 15 -11 19 -29 21 -104
2 -91 16 -158 37 -171 8 -6 8 -10 -1 -16 -15 -9 -3 -135 22 -252 9 -41 25
-116 35 -167 10 -50 25 -104 33 -120 7 -15 26 -81 42 -145 16 -69 31 -115 37
-112 6 4 8 -1 4 -13 -3 -11 3 -38 15 -62 11 -24 19 -54 16 -67 -2 -13 0 -24 4
-24 5 0 9 -10 9 -23 0 -13 7 -46 15 -73 8 -27 27 -87 41 -134 45 -146 66 -203
102 -280 19 -41 43 -95 53 -120 35 -81 103 -213 142 -273 81 -127 248 -265
480 -400 50 -30 64 -22 21 12 -24 19 -146 177 -179 234 -15 26 -15 27 3 27 22
0 21 20 -4 77 -23 52 -16 51 18 -2 17 -27 35 -65 40 -85 6 -19 16 -42 23 -50
7 -8 16 -29 19 -46 9 -42 55 -113 114 -176 33 -36 39 -47 22 -37 -14 7 -29 12
-33 11 -4 -1 -20 4 -35 12 -15 7 -33 11 -39 9 -7 -3 -13 0 -13 6 0 6 -3 10 -7
9 -5 -2 -26 8 -48 21 -24 14 -57 25 -84 26 -42 1 -43 1 -22 -16 12 -10 21 -22
21 -28 0 -6 6 -11 14 -11 8 0 16 -3 18 -8 2 -4 27 -25 56 -46 48 -35 63 -63
25 -49 -13 5 -15 3 -8 -13 4 -10 10 -28 12 -39 3 -11 25 -36 50 -55 24 -19 57
-48 73 -64 20 -20 34 -26 48 -22 16 5 21 2 24 -16 2 -15 13 -26 33 -33 17 -5
32 -13 35 -16 10 -13 50 -20 50 -10 0 15 27 14 32 -1 3 -7 21 -12 42 -11 32 1
41 -4 54 -28 20 -33 81 -52 168 -51 66 0 130 29 126 55 -2 10 1 24 6 30 5 7
15 38 22 70 10 43 18 57 31 57 19 0 51 38 43 51 -2 4 11 24 31 44 19 20 35 43
35 51 0 18 -43 41 -48 25 -2 -6 -16 -11 -31 -11 l-28 0 3 133 c2 121 42 394
84 583 8 35 7 91 -4 218 -9 94 -20 250 -26 346 -6 96 -15 226 -20 289 -15 167
-30 1258 -30 2198 l-1 821 25 54 c38 80 115 265 122 293 7 28 18 27 -151 14z
m-1540 -3439 c27 -139 36 -175 103 -395 78 -257 188 -506 261 -594 49 -59 55
-76 7 -24 -102 115 -194 325 -307 703 -51 168 -114 469 -95 449 2 -2 16 -65
31 -139z m255 -6251 c6 -8 5 -18 0 -23 -6 -6 -5 -15 2 -23 6 -7 8 -16 5 -19
-7 -8 -42 26 -50 49 -4 9 -11 17 -17 17 -14 0 -12 -48 3 -53 16 -5 -9 -37 -29
-37 -23 0 -16 -15 14 -28 21 -9 -9 -10 -148 -6 -96 3 -188 6 -205 6 -104 -2
-159 -1 -225 4 -41 3 -183 8 -315 10 -393 7 -436 9 -445 23 -4 8 -12 11 -18 7
-6 -3 -13 -2 -16 3 -10 15 22 21 117 21 51 0 86 4 79 8 -7 5 -37 7 -67 6 -30
-2 -55 1 -55 6 0 8 53 19 95 19 271 1 338 -1 353 -8 9 -5 61 -17 115 -26 53
-9 97 -21 97 -25 0 -11 58 -21 86 -14 40 10 27 20 -28 20 -31 0 -53 5 -56 12
-2 7 -13 12 -24 12 -12 0 -19 2 -17 5 3 2 92 -3 199 -12 107 -8 213 -16 235
-18 23 -2 39 -8 38 -14 -2 -6 5 -11 15 -12 14 0 14 -2 -3 -9 -13 -6 7 -9 63
-9 50 -1 82 3 82 9 0 6 12 15 26 20 28 11 24 30 -6 30 -31 0 -33 19 -4 30 33
13 22 27 -26 33 -19 3 0 4 43 3 55 -2 81 -7 87 -17z m-9190 -1209 c0 -5 7 -10
15 -10 8 0 15 -4 15 -9 0 -6 -9 -9 -20 -8 -11 1 -20 7 -20 14 0 7 -7 13 -15
13 -8 0 -15 -9 -15 -19 0 -10 7 -21 15 -25 8 -3 15 -16 15 -28 0 -17 3 -19 9
-9 6 9 11 10 15 2 4 -6 13 -11 19 -11 7 0 6 4 -3 10 -12 8 -12 10 3 16 10 3
16 14 15 23 -4 20 -6 20 117 -25 55 -20 114 -38 130 -40 17 -2 66 -8 110 -13
44 -5 87 -9 95 -9 8 1 29 0 47 0 26 -2 31 -5 26 -19 -5 -13 -2 -15 15 -11 30
8 28 -2 -5 -29 l-28 -23 29 10 c31 11 61 6 52 -9 -8 -12 20 -22 41 -14 9 4 14
2 10 -3 -3 -6 10 -10 33 -10 23 0 34 3 27 8 -8 5 -7 8 6 8 9 0 17 -5 17 -11 0
-5 4 -7 10 -4 7 4 7 -3 0 -20 -14 -37 -12 -55 5 -55 11 0 13 -8 9 -32 -4 -28
-3 -30 5 -10 15 33 24 27 15 -10 -3 -18 -15 -39 -25 -46 -11 -7 -19 -20 -19
-28 0 -8 -11 -14 -27 -15 -16 -1 -41 -2 -58 -3 -16 0 -34 -4 -40 -7 -5 -3 -25
-5 -43 -3 -18 1 -35 -2 -38 -7 -3 -5 -16 -9 -30 -9 -13 0 -24 -4 -24 -10 0
-14 -28 -12 -33 3 -3 9 -8 8 -22 -3 -14 -11 -19 -12 -22 -2 -6 17 -21 15 -25
-4 -3 -13 -6 -13 -27 5 -13 12 -32 21 -41 21 -9 0 -34 9 -56 19 -21 11 -42 17
-45 15 -11 -6 -5 30 6 39 6 5 -7 6 -27 2 -21 -3 -38 -3 -38 0 0 4 37 23 60 30
22 7 80 40 80 47 0 11 -4 10 -46 -9 -28 -14 -38 -15 -41 -5 -3 6 -14 12 -25
12 -17 0 -18 3 -8 15 7 8 19 15 26 15 8 0 14 7 14 16 0 14 -3 14 -16 4 -12
-11 -18 -10 -32 3 -15 16 -15 17 8 18 22 1 21 2 -7 10 -19 5 -33 16 -33 25 0
8 -16 22 -35 30 -45 18 -48 18 -42 -6 4 -14 0 -20 -12 -20 -27 0 -33 12 -13
26 11 9 13 13 4 14 -7 0 -10 5 -7 10 4 6 -7 10 -24 10 -17 0 -31 4 -31 9 0 13
72 20 94 9 13 -7 16 -7 12 1 -11 18 -77 31 -98 20 -25 -13 -48 5 -48 37 0 17
-6 24 -20 24 -11 0 -20 5 -20 10 0 6 7 10 16 10 11 0 15 6 11 20 -4 17 0 20
24 20 16 0 29 -4 29 -10z m-2261 -340 c11 5 21 6 23 1 2 -5 26 -12 53 -15 126
-14 150 -18 153 -27 2 -5 10 -9 18 -9 14 0 19 -17 16 -53 -1 -10 2 -16 7 -12
5 3 12 1 16 -4 3 -5 -3 -14 -12 -20 -16 -9 -15 -10 9 -11 22 0 25 3 20 22 -3
14 -2 19 7 14 6 -4 9 -12 6 -17 -4 -5 2 -9 12 -10 10 0 13 -3 6 -5 -7 -3 -10
-11 -7 -18 6 -16 -52 -39 -70 -29 -6 4 -5 -1 3 -10 12 -15 11 -17 -3 -17 -9 0
-16 7 -16 15 0 8 -4 15 -10 15 -5 0 -10 -4 -10 -10 0 -5 -4 -10 -10 -10 -5 0
-10 7 -10 15 0 8 -5 15 -11 15 -6 0 -8 -9 -4 -20 10 -32 -12 -23 -23 9 -8 24
-14 28 -36 24 -28 -6 -36 11 -10 21 30 11 10 14 -36 6 -37 -7 -42 -6 -27 5 19
14 23 40 7 50 -6 3 -8 17 -6 31 4 21 2 24 -15 19 -10 -4 -19 -3 -19 2 0 4 -11
9 -25 9 -34 2 -55 11 -55 24 0 8 6 8 20 0 14 -7 26 -8 39 0z m3387 -15 c40
-14 233 -21 299 -11 17 2 36 -1 42 -6 7 -6 24 -8 38 -6 14 3 28 1 31 -4 3 -4
9 -6 13 -3 5 2 11 -9 15 -25 4 -21 11 -30 26 -30 11 0 20 -6 20 -14 0 -7 9
-16 21 -19 18 -5 19 -9 9 -27 -6 -12 -9 -24 -6 -27 8 -9 36 17 36 34 0 8 5 11
10 8 6 -3 10 -1 10 5 0 7 8 9 21 5 16 -5 19 -4 14 5 -4 7 -1 16 6 21 19 12 29
11 29 -2 0 -5 -4 -8 -8 -5 -4 3 -13 -8 -19 -25 -14 -37 0 -47 21 -14 9 14 22
25 29 24 9 0 9 -2 0 -6 -18 -7 -16 -30 2 -37 9 -3 15 -18 15 -37 0 -27 -2 -30
-15 -19 -13 11 -15 8 -15 -14 0 -15 -4 -25 -9 -22 -5 4 -11 3 -13 -1 -5 -13
-78 -43 -78 -33 0 6 -7 10 -15 10 -8 0 -15 9 -15 21 0 11 -4 18 -8 15 -4 -2
-9 -35 -10 -72 -3 -66 -10 -92 -19 -66 -3 6 -9 10 -14 7 -4 -3 -22 1 -39 10
-17 9 -30 11 -30 5 0 -18 -18 -11 -25 10 -3 11 -15 20 -26 20 -10 0 -19 6 -19
13 0 9 -3 8 -9 -2 -7 -11 -10 -9 -16 8 -4 14 -15 21 -33 21 -19 0 -32 9 -44
30 -12 20 -22 28 -33 24 -10 -4 -24 2 -36 15 -11 11 -31 21 -45 21 -18 0 -24
4 -21 13 6 17 -27 39 -48 31 -9 -4 -17 1 -21 12 -3 11 -10 27 -15 36 -5 10 -9
29 -9 42 0 14 -10 30 -25 40 -24 16 -34 36 -17 36 4 0 25 -7 48 -15z m-1473
-47 c31 0 57 -4 57 -8 0 -4 8 -6 18 -3 13 3 28 -6 46 -28 23 -27 30 -30 38
-18 8 11 9 11 4 -3 -3 -10 -1 -20 4 -23 6 -4 10 -1 10 6 0 6 11 0 25 -15 15
-16 25 -39 25 -57 0 -19 5 -29 15 -29 9 0 15 6 14 13 -4 33 2 45 25 45 18 0
22 -5 18 -20 -2 -11 -10 -17 -18 -14 -11 4 -11 2 -2 -13 18 -30 -18 -58 -48
-38 -15 9 -26 -19 -19 -44 9 -27 -3 -43 -21 -28 -8 6 -25 8 -40 5 -14 -4 -32
-2 -40 4 -7 7 -18 9 -24 5 -5 -3 -10 1 -10 10 0 11 -6 14 -24 9 -17 -4 -27 0
-35 13 -9 16 -12 16 -20 3 -9 -13 -12 -12 -25 5 -12 15 -18 17 -24 8 -6 -10
-14 -9 -36 2 -15 8 -32 12 -37 9 -5 -3 -9 0 -9 5 0 6 5 11 12 11 6 0 8 3 4 8
-4 4 -11 7 -15 7 -19 0 -81 51 -76 64 4 10 0 10 -19 -2 -23 -15 -36 -13 -36 5
0 4 6 8 13 8 7 0 18 9 25 20 12 19 11 20 -13 14 -21 -5 -25 -3 -25 14 0 24 16
37 25 22 3 -5 11 -10 18 -10 8 0 8 3 -1 12 -9 9 -7 15 6 25 13 10 35 12 87 7
39 -4 96 -6 128 -6z m1074 -230 c12 -11 27 -33 33 -49 7 -16 16 -29 21 -29 5
0 9 -7 9 -15 0 -8 7 -15 15 -15 8 0 15 -9 15 -20 0 -21 24 -28 35 -10 19 30
135 -9 135 -45 0 -8 7 -18 16 -23 13 -7 15 -17 10 -38 -6 -21 -9 -25 -16 -14
-5 8 -12 11 -16 7 -4 -4 1 -16 11 -27 12 -14 15 -23 8 -32 -6 -7 -10 -25 -9
-40 1 -14 -2 -26 -7 -25 -5 1 -12 -4 -14 -10 -3 -7 2 -13 11 -13 9 0 16 -4 16
-10 0 -5 -7 -10 -15 -10 -8 0 -15 -5 -15 -10 0 -22 -84 2 -113 31 -31 32 -47
37 -47 15 0 -16 38 -44 83 -64 34 -15 97 -16 97 -2 0 6 5 10 11 10 7 0 22 11
35 26 13 14 24 20 24 15 0 -6 14 -26 31 -45 17 -20 28 -40 24 -46 -3 -5 -1
-10 5 -10 7 0 21 -11 32 -25 11 -14 28 -25 38 -25 10 0 20 -7 24 -15 3 -8 12
-15 20 -15 23 0 38 -34 23 -51 -6 -8 -1 -4 13 8 19 18 22 25 12 35 -7 7 -12
25 -12 40 0 21 -5 28 -19 28 -11 0 -23 -4 -26 -10 -14 -23 -27 -9 -22 25 7 40
-7 54 -32 31 -21 -19 -35 -21 -28 -3 20 53 20 60 -2 54 -11 -3 -21 -1 -21 4 0
4 -7 6 -15 3 -20 -8 -19 24 0 50 30 40 10 62 -27 29 -17 -15 -18 -15 -18 5 0
12 -4 22 -10 22 -6 0 -6 9 0 24 5 13 7 32 6 42 -2 11 -1 13 1 6 3 -7 15 -10
29 -8 21 4 27 -1 40 -34 18 -46 30 -51 107 -47 48 2 55 4 40 14 -10 7 -23 17
-30 23 -18 15 -23 12 -16 -7 5 -14 1 -15 -27 -9 -39 7 -64 31 -68 64 -4 26 5
28 36 6 26 -18 99 -28 107 -14 3 6 -1 7 -9 4 -16 -6 -22 7 -9 20 4 4 8 25 8
48 l1 40 -18 -22 c-11 -13 -17 -29 -14 -36 3 -7 1 -16 -4 -19 -14 -9 -60 13
-60 29 0 24 -22 30 -37 11 -7 -11 -13 -13 -13 -6 0 19 47 61 69 61 11 0 26 -7
35 -15 9 -9 17 -11 21 -5 3 5 1 10 -4 10 -17 0 -13 17 5 24 8 3 12 2 9 -4 -3
-5 3 -14 14 -19 10 -6 21 -25 25 -43 3 -18 13 -46 21 -61 13 -25 13 -32 0 -57
-20 -39 -19 -43 10 -36 19 5 23 3 19 -9 -4 -10 0 -15 10 -15 9 0 19 -6 22 -14
3 -8 13 -12 26 -8 13 3 26 -1 34 -12 8 -11 14 -13 19 -6 3 5 11 7 17 4 14 -9
318 -11 318 -1 0 4 18 7 40 7 28 0 43 5 47 16 4 12 16 14 54 10 40 -5 50 -2
62 14 8 11 16 17 19 14 4 -3 16 1 28 8 18 10 24 10 27 1 3 -7 12 -13 21 -13
14 0 15 2 2 10 -17 10 -14 15 19 25 15 5 21 3 17 -3 -4 -6 2 -8 14 -5 11 3 20
10 20 15 0 6 18 8 40 6 22 -2 40 0 40 4 0 5 6 8 14 8 8 0 21 6 28 13 7 6 38
13 68 15 32 2 60 9 66 18 14 17 34 18 34 2 0 -9 4 -8 10 2 9 13 11 13 19 0 8
-12 13 -12 30 4 12 11 21 14 21 7 0 -18 48 -33 70 -21 15 8 21 6 29 -7 10 -17
10 -17 11 0 0 9 7 17 15 17 8 0 15 6 15 14 0 7 7 19 15 26 19 16 19 15 -5 -48
-11 -29 -20 -74 -20 -102 0 -27 -4 -52 -10 -55 -5 -3 -10 -12 -10 -18 0 -7 4
-6 11 3 8 12 10 12 7 1 -2 -8 -11 -15 -19 -17 -56 -9 -249 -48 -321 -65 -85
-20 -173 -37 -213 -43 -11 -1 -27 -6 -35 -9 -8 -4 -58 -16 -110 -27 -52 -12
-113 -25 -135 -30 -80 -19 -173 -29 -251 -29 -128 1 -144 3 -144 18 0 7 -6 11
-14 8 -19 -7 -89 26 -79 37 4 5 -1 6 -12 4 -19 -3 -24 -21 -14 -58 3 -10 -14
-24 -50 -42 -64 -33 -91 -36 -85 -10 3 9 -2 26 -10 37 -14 20 -14 20 -43 -1
-40 -30 -78 -37 -96 -19 -13 13 -16 10 -21 -20 -7 -34 -22 -53 -33 -41 -3 3 0
12 6 20 18 21 -1 29 -65 27 l-54 -1 0 40 c0 22 -4 40 -9 40 -5 0 -12 11 -15
25 -6 24 -36 36 -36 14 0 -5 -5 -7 -11 -4 -6 4 -7 19 -4 36 8 36 -9 39 -39 6
-20 -22 -25 -74 -5 -62 15 10 49 -5 49 -22 0 -10 6 -14 20 -10 11 3 20 4 20 2
0 -2 3 -11 7 -21 5 -12 3 -15 -6 -9 -10 6 -11 3 -2 -13 6 -11 11 -24 11 -27 0
-11 -45 7 -58 24 -7 9 -18 16 -25 16 -17 1 -77 38 -77 47 0 5 -11 6 -25 4 -15
-3 -23 -1 -20 5 4 5 9 21 11 36 6 34 13 45 24 38 5 -3 15 4 24 16 13 19 13 25
0 50 -21 41 -64 63 -64 33 0 -8 5 -12 10 -9 6 4 10 -6 10 -23 0 -22 -4 -29
-17 -28 -14 1 -17 -5 -15 -24 4 -21 2 -22 -12 -11 -15 13 -16 11 -6 -13 15
-41 11 -66 -6 -29 -18 42 -25 45 -53 22 -15 -12 -22 -26 -18 -39 3 -10 2 -19
-2 -18 -3 1 -19 -2 -34 -7 -16 -4 -38 -3 -50 2 -13 6 -32 7 -44 2 -27 -10
-216 17 -221 31 -2 6 -10 6 -22 0 -13 -7 -30 -5 -57 4 -22 8 -66 19 -99 26
-32 7 -63 16 -69 20 -5 4 -30 13 -55 19 -63 16 -214 64 -220 71 -3 3 -9 5 -15
6 -24 1 -93 18 -122 31 -18 7 -47 13 -64 13 -26 0 -29 3 -20 14 9 11 9 14 -1
13 -40 -1 -68 5 -80 17 -10 9 -20 11 -31 4 -13 -7 -15 -5 -10 8 5 14 3 16 -12
10 -12 -4 -24 0 -37 14 -25 26 -46 25 -57 -3 -5 -13 -16 -28 -24 -35 -12 -11
-14 -3 -9 56 4 61 1 74 -27 130 -17 34 -35 62 -40 62 -5 0 -16 10 -24 23 -14
22 -14 23 6 22 11 -1 23 -7 25 -13 2 -7 12 -12 21 -12 10 0 29 -11 42 -23 13
-13 33 -29 44 -36 15 -9 16 -11 3 -7 -21 6 -24 -7 -4 -23 8 -7 12 -20 9 -30
-4 -14 2 -19 26 -23 19 -3 32 0 35 9 7 17 31 17 50 -2 11 -11 21 -13 40 -5 28
10 75 7 104 -9 13 -7 22 -7 30 1 9 9 12 8 12 -3 0 -18 82 -39 185 -48 15 -1
17 -3 6 -10 -9 -6 -4 -10 18 -13 18 -3 31 0 31 6 0 8 3 8 8 0 4 -6 31 -17 60
-24 28 -8 52 -18 52 -23 0 -4 8 -7 18 -6 9 1 19 0 22 -1 3 -1 19 -3 36 -4 17
-1 39 -8 48 -15 9 -8 19 -11 23 -8 3 4 13 1 21 -6 12 -10 16 -9 20 1 3 9 8 10
16 2 7 -5 26 -11 42 -12 16 -1 32 -7 37 -13 4 -6 10 -5 16 4 8 12 12 13 25 1
16 -12 125 -16 216 -6 19 2 41 -1 48 -7 8 -6 12 -6 12 3 0 10 3 10 14 1 12
-10 16 -8 22 11 7 23 21 38 38 38 6 0 5 -5 -2 -12 -18 -18 -16 -44 2 -29 11 9
15 9 19 -1 4 -10 8 -10 16 2 10 13 12 13 20 0 6 -8 13 -11 17 -7 4 3 1 13 -6
22 -16 19 3 20 23 1 11 -11 17 -12 26 -3 16 16 64 -31 57 -58 -3 -11 -1 -27 4
-35 10 -16 -24 -70 -45 -70 -7 0 -15 -9 -18 -20 -3 -11 -3 -20 0 -20 15 0 66
46 79 72 15 28 15 32 0 40 -12 7 -13 13 -4 33 9 21 7 34 -17 83 -16 31 -30 59
-31 61 -2 2 -16 -6 -32 -18 -32 -23 -57 -27 -67 -11 -3 5 -12 7 -20 4 -17 -7
-65 24 -65 42 0 8 -8 14 -17 14 -12 0 -14 3 -6 8 7 5 9 13 3 22 -9 15 9 58 34
79 9 7 13 17 10 22 -3 5 2 9 10 9 20 0 20 -14 1 -34 -8 -8 -15 -28 -15 -45 0
-24 8 -36 37 -56 48 -32 53 -32 53 5 0 32 -9 37 -28 18 -9 -9 -12 -8 -12 7 0
11 -7 28 -15 39 -18 23 0 56 30 56 40 -1 72 -44 89 -120 7 -36 46 -39 46 -4 0
41 -39 116 -81 156 -41 38 -49 54 -24 44 8 -3 15 -1 15 4 0 6 11 5 25 -2 14
-6 25 -14 25 -18 0 -7 12 -22 60 -78 12 -14 20 -18 20 -10 0 14 -14 36 -68
112 -34 48 -21 55 25 14z m4141 -84 c28 -8 29 -40 2 -49 -43 -14 -5 -62 44
-57 16 2 33 -1 39 -7 26 -26 29 -14 17 67 0 1 -7 2 -15 2 -8 0 -19 9 -25 20
-10 19 -7 20 97 19 108 0 188 -17 206 -42 5 -7 6 -2 2 11 l-7 23 39 -16 c69
-30 69 -30 57 -14 -6 8 -14 22 -17 32 -6 16 -3 18 26 12 46 -10 59 -23 46 -46
-5 -11 -15 -17 -20 -13 -6 3 -5 -3 2 -14 7 -12 15 -19 18 -17 2 3 11 -4 19
-16 8 -11 20 -18 28 -15 8 3 11 0 8 -9 -9 -22 -37 -22 -56 0 -10 11 -17 15
-18 9 0 -6 16 -29 35 -51 30 -35 35 -49 39 -106 l5 -65 -30 31 c-17 16 -36 46
-42 65 -18 53 -52 74 -102 62 -22 -5 -48 -19 -58 -31 -16 -20 -16 -24 -3 -37
13 -13 17 -12 38 11 31 35 69 43 91 20 15 -18 15 -19 -3 -19 -10 0 -16 4 -14
8 3 4 -4 8 -14 8 -11 0 -22 -7 -26 -15 -4 -11 2 -15 22 -15 55 0 130 -93 166
-208 14 -46 26 -85 26 -87 0 -4 -109 59 -125 73 -11 9 -157 87 -165 88 -3 0
-23 8 -45 18 -95 42 -203 58 -345 53 -157 -5 -227 -22 -418 -99 -300 -120
-384 -137 -579 -119 -138 13 -164 19 -568 132 -44 12 -126 32 -183 44 -56 12
-100 23 -98 26 2 2 -12 5 -32 6 -20 1 -45 2 -54 3 -9 1 -18 11 -20 22 -2 12
-9 23 -17 26 -11 4 -12 -3 -7 -30 3 -19 3 -37 0 -41 -11 -11 -33 40 -27 63 3
11 1 26 -5 33 -11 14 0 113 15 128 7 7 21 6 44 -4 25 -10 39 -11 51 -4 27 18
60 -4 73 -48 12 -47 54 -77 82 -59 9 5 25 37 35 70 11 32 26 66 34 74 12 12
14 11 14 -13 0 -20 4 -25 17 -20 13 5 15 2 10 -16 -5 -21 -3 -22 36 -16 31 4
38 3 27 -4 -13 -9 -12 -11 5 -11 11 0 30 -7 41 -15 12 -8 24 -12 27 -8 7 6 56
-10 100 -33 15 -9 27 -12 27 -8 0 5 5 3 12 -4 7 -7 18 -12 26 -12 8 0 33 -8
56 -19 69 -32 146 -44 263 -44 81 1 125 6 158 18 25 10 45 21 45 25 0 4 -34 2
-77 -5 -44 -7 -93 -9 -117 -4 -23 4 -70 13 -106 19 -36 7 -74 16 -85 20 -11 5
-49 19 -85 31 -74 24 -197 83 -222 106 -9 8 -20 13 -25 10 -5 -3 -19 1 -33 9
-25 15 -24 15 10 8 19 -4 53 -15 75 -25 133 -60 268 -101 345 -104 30 -1 63
-6 73 -10 10 -4 67 -5 125 -2 104 6 121 8 152 19 8 3 44 16 80 28 36 12 79 28
95 35 107 47 169 69 275 96 147 37 331 58 388 43z m-2521 -85 c-10 -6 -21 -8
-24 -6 -3 3 -14 -2 -25 -12 -11 -11 -28 -17 -39 -14 -11 3 -19 0 -19 -6 0 -7
-5 -9 -11 -5 -10 6 -30 -1 -82 -28 -10 -5 -27 -6 -38 -3 -12 4 -27 1 -37 -8
-21 -19 -99 -40 -119 -32 -9 3 -21 1 -28 -5 -36 -30 -473 -51 -482 -23 -3 7
-11 9 -20 6 -13 -5 -14 -3 -3 17 11 20 14 21 24 9 17 -22 259 -25 351 -5 254
55 308 68 375 86 41 12 86 23 98 25 13 2 26 6 30 9 3 3 19 6 36 6 27 -1 28 -2
13 -11z m-2484 -14 c37 -12 144 -38 212 -50 87 -16 336 -22 370 -9 8 3 15 1
15 -5 0 -6 -8 -11 -18 -11 -10 0 -23 -5 -29 -11 -22 -22 -320 -11 -383 14 -14
5 -34 11 -45 12 -39 6 -185 58 -185 66 0 12 13 11 63 -6z"/>
<path d="M3252 1772 c-21 -18 -38 -92 -21 -92 6 0 7 -5 4 -10 -3 -6 0 -16 7
-24 22 -22 98 -58 98 -46 0 5 0 12 0 15 0 3 7 19 15 36 38 73 -45 172 -103
121z"/>
<path d="M13498 8952 c-19 -4 -39 -54 -36 -92 4 -41 65 -79 83 -50 3 6 11 10
16 10 6 0 7 -4 4 -10 -3 -5 -1 -18 4 -27 8 -14 10 -15 11 -3 0 8 14 26 30 40
36 30 38 40 5 40 -21 0 -24 4 -19 28 2 15 1 33 -4 40 -10 15 -68 30 -94 24z"/>
<path d="M7837 8822 c-15 -15 -27 -38 -27 -51 0 -12 -4 -19 -10 -16 -5 3 -20
-1 -32 -11 -15 -10 -17 -14 -6 -11 11 4 28 -5 48 -24 22 -22 30 -26 30 -14 0
13 4 14 21 5 20 -11 41 -3 61 25 17 22 8 76 -17 100 -31 31 -35 31 -68 -3z"/>
<path d="M7545 8717 c-10 -8 -15 -19 -11 -25 3 -6 2 -13 -4 -17 -14 -9 -12
-52 3 -58 9 -4 9 -8 -2 -15 -18 -13 8 -22 70 -24 51 -2 86 23 81 57 -7 51 -13
61 -41 78 -33 19 -45 22 -36 7 3 -5 2 -10 -4 -10 -5 0 -13 5 -16 10 -8 13 -18
13 -40 -3z"/>
<path d="M16405 6591 c-28 -6 -26 -8 43 -34 40 -15 119 -38 175 -52 56 -14
120 -32 142 -40 56 -18 179 -55 187 -55 4 0 5 7 2 15 -4 9 -19 15 -38 15 -25
0 -28 2 -16 11 12 8 9 9 -12 5 -15 -4 -36 -2 -45 2 -10 5 -32 17 -50 26 -17 9
-43 16 -57 16 -15 0 -25 5 -23 12 1 6 -7 13 -18 15 -16 3 -17 2 -5 -6 13 -10
13 -11 0 -11 -9 0 -26 7 -39 16 -15 11 -25 13 -30 6 -7 -11 -61 -4 -61 8 0 4
10 6 23 5 12 -1 14 0 5 2 -10 2 -15 10 -11 19 3 8 0 14 -6 14 -6 0 -11 -7 -11
-15 0 -10 -10 -15 -32 -14 -26 0 -29 2 -14 8 25 10 7 22 -34 23 -17 1 -30 5
-30 10 0 9 -1 9 -45 -1z"/>
<path d="M20461 6384 c-7 -27 -19 -69 -26 -94 -44 -154 -111 -398 -130 -475
-13 -49 -28 -103 -34 -119 -7 -16 -10 -30 -8 -32 1 -2 23 -6 47 -9 25 -3 39
-2 32 1 -10 4 -10 9 -2 19 16 19 20 67 8 83 -6 7 -8 15 -4 19 3 3 6 1 6 -5 0
-22 20 -12 20 11 1 12 1 35 1 51 1 18 4 24 9 17 5 -9 9 -5 15 11 11 35 36 177
42 236 3 28 9 52 13 52 4 0 6 9 3 20 -3 12 0 20 7 20 6 0 10 10 9 23 -1 12 1
33 5 47 4 14 6 58 4 99 l-3 74 -14 -49z"/>
<path d="M10030 6301 c0 -7 152 -11 533 -13 292 -2 534 -2 536 0 15 8 -57 11
-536 17 -387 5 -533 4 -533 -4z"/>
<path d="M11094 6106 c1 -64 -3 -116 -8 -116 -5 0 -3 -7 4 -15 12 -14 -42 -15
-510 -15 -319 1 -531 5 -542 11 -13 7 -18 6 -18 -4 0 -11 63 -15 347 -20 190
-4 438 -7 551 -7 l205 0 -7 133 c-4 72 -11 136 -15 140 -5 5 -8 -44 -7 -107z"/>
<path d="M10025 5549 c-4 -63 -5 -143 -3 -179 l3 -65 210 -6 c116 -4 365 -8
555 -10 l345 -4 3 165 c1 91 0 174 -2 185 -5 20 -15 20 -555 24 l-549 3 -7
-113z m862 80 c155 0 194 -3 204 -15 9 -11 10 -50 5 -151 -6 -107 -4 -138 6
-144 11 -7 -968 -2 -1027 6 -11 1 -19 5 -17 8 1 4 2 75 2 159 l0 151 318 -7
c174 -3 403 -7 509 -7z"/>
<path d="M3045 4621 c-11 -5 -23 -7 -26 -5 -3 2 -16 -7 -27 -19 -18 -20 -21
-30 -14 -67 l7 -45 22 22 c12 12 25 18 28 14 2 -5 22 -11 42 -13 21 -3 45 -8
54 -12 12 -5 18 -1 21 17 5 27 -23 92 -35 81 -4 -4 -7 -2 -7 5 0 8 -7 11 -15
7 -9 -3 -15 0 -15 9 0 17 -6 17 -35 6z"/>
<path d="M3222 4558 c-7 -7 -12 -21 -12 -32 0 -12 4 -16 8 -11 13 18 50 16 57
-4 9 -30 34 -45 74 -46 34 -1 36 -4 37 -34 1 -18 8 -39 17 -48 23 -23 47 -1
47 43 0 38 -29 64 -72 64 -21 0 -31 7 -38 24 -17 47 -89 73 -118 44z"/>
<path d="M2701 4494 c-12 -15 -21 -32 -21 -40 0 -7 -14 -15 -31 -19 -23 -5
-28 -10 -20 -18 9 -9 17 -8 32 1 18 11 23 11 35 -5 18 -24 18 -24 -15 -60 -16
-18 -27 -34 -24 -37 3 -2 -6 -2 -19 1 -21 6 -22 5 -9 -10 8 -10 21 -15 31 -12
11 3 20 -1 24 -10 3 -8 17 -15 32 -15 23 0 26 3 21 28 -4 15 1 49 11 75 13 37
14 52 5 66 -7 10 -9 27 -7 38 3 11 -1 25 -9 32 -12 10 -19 7 -36 -15z"/>
<path d="M18685 4134 c-49 -7 -128 -18 -174 -23 -61 -8 -88 -15 -94 -27 -8
-13 -11 -14 -18 -3 -8 12 -10 12 -18 0 -6 -9 -11 -10 -15 -2 -4 6 -13 11 -19
11 -8 0 -7 -3 2 -9 10 -6 3 -9 -21 -9 -19 0 -49 -7 -66 -16 -17 -9 -39 -16
-49 -16 -10 0 -34 -12 -53 -28 -19 -15 -46 -33 -60 -40 -41 -21 -64 -41 -56
-49 3 -4 20 1 35 10 16 9 40 17 53 17 14 0 33 12 49 32 21 26 34 32 68 32 22
1 41 -2 41 -6 0 -5 15 -7 33 -7 21 1 25 3 12 6 -11 3 -23 9 -28 14 -4 5 -4 7
-1 4 4 -2 15 0 25 6 18 9 48 3 122 -26 12 -5 17 -2 17 10 0 12 5 15 20 10 12
-4 20 -2 20 5 0 8 9 10 26 6 21 -6 25 -4 21 8 -5 11 0 16 13 16 11 0 29 6 40
13 17 10 22 9 30 -3 9 -13 14 -7 11 12 0 4 13 5 29 1 19 -3 30 -1 30 6 0 6 7
11 15 11 8 0 15 5 15 10 0 6 10 10 23 10 13 0 32 7 43 15 18 14 18 14 -6 14
-14 -1 -65 -7 -115 -15z"/>
<path d="M613 3906 c-27 -23 -27 -25 -10 -43 22 -25 22 -53 -1 -53 -10 0 -28
18 -43 43 -19 31 -33 43 -53 45 -63 5 -134 -65 -140 -137 -3 -35 1 -47 25 -71
16 -16 29 -33 29 -39 0 -6 5 -11 11 -11 5 0 7 5 3 11 -3 6 7 4 22 -3 16 -8 36
-13 44 -11 22 5 50 -64 40 -98 -12 -41 -45 -68 -87 -71 -35 -3 -38 -1 -43 27
-4 23 -10 29 -25 27 -11 -2 -34 -6 -52 -9 -21 -3 -42 -18 -63 -44 -26 -33 -37
-39 -70 -39 -22 0 -61 9 -89 19 -27 11 -51 18 -54 15 -2 -2 -16 0 -31 5 -25
10 -26 10 -26 -29 0 -22 2 -40 5 -40 10 0 55 24 55 29 0 9 57 7 66 -1 4 -5 15
-8 25 -8 10 0 34 -8 54 -17 27 -13 35 -22 31 -36 -2 -10 -2 -16 1 -13 3 3 12
-1 20 -9 8 -8 25 -15 39 -15 25 0 33 15 12 23 -8 3 -6 6 5 6 9 1 17 5 17 10 0
5 15 11 34 13 19 2 33 1 31 -3 -3 -3 20 -5 51 -4 45 2 59 -1 75 -18 14 -16 16
-23 7 -29 -8 -5 -2 -8 16 -8 17 0 40 10 54 22 18 18 37 23 83 25 44 1 59 -2
59 -12 0 -8 -18 -16 -50 -20 -81 -11 -57 -23 38 -18 106 5 132 10 132 24 0 8
-5 7 -15 -1 -21 -18 -31 -5 -11 15 9 9 37 18 63 21 27 2 62 6 78 10 21 3 26 2
16 -4 -7 -5 -11 -14 -7 -20 3 -6 0 -13 -6 -15 -7 -3 11 -6 40 -6 34 -1 51 3
50 10 -4 18 54 48 105 55 68 10 60 -12 -10 -27 -32 -7 -62 -16 -67 -21 -52
-46 389 97 472 153 24 16 48 29 54 29 6 0 8 3 5 6 -4 4 -19 1 -35 -5 -19 -8
-36 -9 -53 -2 -23 9 -23 10 -2 10 12 1 25 6 28 11 4 6 32 24 63 40 51 27 53
30 22 24 -19 -4 -47 -13 -62 -20 -17 -9 -28 -10 -28 -4 0 5 -9 1 -20 -10 -12
-12 -25 -18 -31 -14 -15 9 -79 -25 -79 -41 0 -8 -5 -15 -11 -15 -5 0 -7 5 -4
10 9 15 -14 12 -70 -9 -27 -10 -88 -26 -135 -36 -47 -9 -99 -23 -117 -31 -41
-19 -57 -18 -104 6 -33 17 -38 24 -33 44 8 33 -20 54 -44 32 -25 -22 -32 -20
-32 9 0 30 -15 32 -32 5 -17 -27 -32 -25 -53 6 -38 59 -36 114 5 114 13 0 20
7 20 20 0 25 8 25 33 3 19 -17 20 -17 14 0 -4 10 0 29 9 42 17 26 12 95 -6 95
-6 0 -10 7 -10 15 0 9 -7 18 -15 21 -8 4 -15 15 -15 25 0 10 -5 19 -10 19 -16
0 -88 -38 -95 -50 -3 -5 -13 -10 -21 -10 -11 0 -12 4 -4 19 15 28 13 31 -20
31 -22 0 -28 4 -24 15 9 22 -11 18 -43 -9z"/>
<path d="M5687 3803 c-14 -14 -15 -19 -3 -32 8 -9 17 -30 20 -47 9 -43 -14
-51 -39 -14 -19 29 -82 66 -120 71 -49 7 -95 -42 -95 -100 0 -34 41 -81 70
-81 11 0 28 -8 39 -19 10 -10 23 -20 29 -22 23 -9 18 -79 -8 -107 -11 -12 -20
-26 -20 -32 0 -14 -11 -13 -30 5 -17 15 -50 11 -50 -6 0 -14 -28 -11 -33 4 -2
7 -12 -2 -23 -20 -11 -18 -32 -38 -49 -44 l-30 -11 25 -8 c14 -5 38 -8 54 -9
23 -1 27 -4 21 -18 -22 -55 -15 -73 31 -73 21 0 34 17 34 46 0 11 -7 13 -26 8
-20 -5 -25 -3 -22 7 3 9 20 14 50 14 31 0 53 6 67 19 23 21 22 22 39 -16 12
-28 45 -38 57 -18 4 6 11 7 17 4 7 -4 5 -10 -6 -16 -21 -12 -21 -62 0 -79 20
-16 48 -1 52 30 3 19 0 21 -24 15 -20 -5 -26 -4 -22 7 3 8 13 16 24 17 10 2
26 13 34 23 15 20 16 19 39 -5 25 -27 51 -25 51 5 0 25 9 24 50 -6 19 -14 45
-25 58 -25 20 0 23 -4 19 -21 -8 -30 13 -59 43 -59 22 0 26 5 28 31 4 46 8 49
61 49 68 0 111 10 111 26 0 8 -7 14 -15 14 -9 0 -26 23 -39 51 l-23 51 -22
-23 c-25 -27 -25 -31 -6 -69 9 -17 11 -30 6 -30 -14 0 -31 34 -31 60 0 14 -8
24 -20 27 -15 4 -19 11 -15 27 6 19 4 19 -14 -4 -11 -14 -21 -40 -21 -57 0
-42 -23 -43 -77 -4 -57 41 -83 82 -83 128 0 51 12 61 66 55 29 -3 44 -1 44 7
0 6 6 11 13 11 18 0 37 57 37 111 0 40 -4 47 -42 73 -32 23 -52 30 -95 30 -29
1 -53 -3 -53 -8 0 -5 -3 -6 -7 -3 -3 4 -13 1 -21 -6 -13 -10 -14 -8 -8 16 5
23 2 30 -26 47 -40 24 -49 25 -71 3z"/>
<path d="M2080 3795 c-7 -9 -15 -38 -18 -65 -2 -27 -8 -47 -12 -45 -5 3 -10 0
-12 -6 -8 -24 -47 10 -54 46 -3 19 -10 35 -15 35 -11 0 -23 -46 -15 -58 9 -15
-99 -35 -159 -29 -49 5 -58 3 -81 -18 -24 -22 -25 -26 -10 -40 22 -22 21 -23
-24 -41 -55 -22 -44 -29 14 -10 26 9 68 16 94 17 75 1 99 17 27 18 l-59 1 21
21 c20 21 80 38 134 39 33 0 48 -38 22 -57 -15 -12 -14 -13 9 -13 15 0 39 12
56 28 25 23 34 26 58 20 16 -5 40 -6 53 -3 20 5 21 8 9 18 -26 20 -38 72 -27
112 12 42 8 53 -11 30z"/>
<path d="M3105 3681 c-40 -17 -59 -50 -63 -112 -8 -108 45 -199 117 -199 60 0
103 58 105 144 1 65 -24 116 -73 150 -39 27 -53 30 -86 17z"/>
<path d="M2131 3626 c-9 -11 -7 -15 10 -19 11 -3 18 -10 15 -15 -10 -16 13
-77 34 -90 26 -16 26 -1 0 18 -26 19 -25 28 3 27 12 0 29 3 39 7 11 5 18 2 22
-12 6 -18 41 -41 59 -38 5 0 13 -7 18 -17 6 -9 16 -15 22 -11 7 3 -3 -8 -20
-25 -32 -30 -44 -49 -23 -36 6 4 29 -3 52 -15 30 -15 43 -18 48 -10 6 9 13 9
28 1 26 -14 42 -14 42 -1 0 6 -10 10 -22 10 -15 0 -32 14 -48 35 -14 20 -42
45 -62 57 -21 12 -38 25 -38 30 0 4 -7 5 -15 2 -9 -4 -22 7 -36 31 -18 29 -27
36 -45 32 -21 -4 -23 -1 -17 21 5 21 3 24 -10 19 -9 -3 -19 -2 -22 3 -9 14
-21 12 -34 -4z"/>
<path d="M13248 3416 c-32 -44 -78 -103 -103 -130 -43 -45 -46 -52 -43 -95 3
-42 5 -46 31 -49 19 -2 27 1 27 12 0 27 79 219 115 279 20 33 34 61 33 62 -2
2 -29 -34 -60 -79z"/>
<path d="M3981 3425 c-43 -34 -69 -45 -56 -24 4 6 -2 5 -14 -3 -12 -7 -21 -16
-21 -20 0 -5 -14 -8 -31 -8 -23 0 -30 -4 -26 -14 4 -10 1 -13 -8 -9 -8 3 -18
-2 -21 -11 -7 -17 -34 -22 -34 -7 0 6 9 16 21 24 l21 15 -21 7 c-27 8 -61 -11
-61 -35 0 -11 -7 -20 -16 -20 -8 0 -12 -5 -9 -10 4 -6 10 -8 15 -5 5 3 14 -4
20 -15 10 -18 7 -22 -27 -36 -74 -29 -86 -35 -80 -40 12 -12 180 54 171 67 -2
4 1 11 7 14 5 4 8 13 5 20 -3 9 6 16 25 20 17 4 26 11 23 17 -5 7 -2 8 6 3 8
-5 10 -20 6 -43 -4 -27 -2 -32 6 -24 7 7 19 12 28 12 8 0 31 14 50 30 19 17
27 27 17 24 -30 -11 -4 38 47 87 33 32 4 21 -43 -16z"/>
<path d="M16247 3342 l-27 -29 21 -19 c48 -43 63 -92 64 -213 1 -78 5 -116 13
-119 6 -2 21 -20 33 -40 20 -36 104 -99 124 -95 6 2 29 -15 52 -36 24 -21 44
-33 47 -27 3 7 11 4 20 -8 17 -21 11 -42 -7 -29 -17 12 -52 10 -52 -2 1 -15
51 -36 70 -29 13 5 15 14 11 39 -7 36 0 41 79 44 21 1 41 3 43 5 2 2 -7 15
-20 29 -40 44 -53 61 -50 69 1 5 -2 8 -8 8 -5 0 -10 -4 -10 -10 0 -5 -7 -10
-16 -10 -12 0 -15 -6 -10 -20 3 -11 9 -29 12 -40 4 -11 2 -20 -3 -20 -10 0
-33 57 -33 83 0 9 -7 17 -16 17 -9 0 -12 5 -8 12 5 7 2 9 -8 5 -9 -3 -21 0
-27 6 -14 14 -14 2 -1 -23 7 -13 6 -19 -5 -23 -20 -8 -57 55 -63 109 -4 36 0
51 18 76 16 22 19 33 11 41 -6 6 -11 18 -11 28 0 12 -6 15 -25 11 -17 -3 -25
0 -25 10 0 10 11 15 32 16 33 1 68 -21 68 -43 0 -28 25 -35 58 -15 18 11 32
23 33 27 0 5 2 18 3 31 2 12 -1 22 -6 22 -4 0 -8 6 -8 13 0 7 -9 23 -20 35
-11 12 -20 26 -20 32 0 9 -29 15 -53 11 -4 -1 -16 3 -27 9 -13 7 -21 7 -26 -2
-5 -7 -2 -8 7 -3 10 5 11 5 4 -2 -5 -6 -24 -14 -41 -17 -23 -5 -33 -3 -37 8
-4 10 -13 13 -23 9 -13 -5 -16 -3 -11 10 5 12 -1 19 -18 23 -14 3 -25 10 -25
15 0 5 -13 9 -29 9 -36 0 -48 15 -24 29 10 6 13 11 7 11 -5 0 -22 -13 -37 -28z"/>
<path d="M13871 3349 c-43 -8 -124 -50 -136 -70 -4 -6 21 4 56 21 75 38 156
49 223 29 37 -11 46 -18 46 -36 0 -22 -15 -32 -22 -14 -1 4 -13 12 -25 15 -17
6 -23 3 -23 -8 0 -10 9 -16 25 -16 18 0 25 -5 25 -19 0 -10 7 -22 16 -25 14
-5 15 -4 4 9 -11 13 -9 19 9 37 18 16 20 22 10 29 -7 4 -11 10 -8 13 3 3 50
-12 105 -33 106 -42 176 -73 438 -195 39 -18 94 -41 121 -51 28 -10 64 -24 82
-31 36 -16 51 -18 38 -5 -6 5 -62 29 -126 55 -64 25 -147 61 -185 80 -216 108
-410 190 -475 201 -19 3 -52 10 -74 15 -47 11 -64 11 -124 -1z"/>
<path d="M16063 3256 c-17 -6 -35 -14 -39 -18 -4 -4 -13 -3 -19 2 -30 25 -45
-122 -17 -166 13 -21 77 -54 103 -54 14 0 34 -9 46 -19 19 -18 21 -32 14 -108
-1 -7 -18 -30 -38 -52 -28 -31 -49 -43 -88 -52 -52 -11 -93 -34 -83 -45 9 -9
130 -6 137 3 3 5 20 15 36 23 17 8 33 16 36 17 3 2 11 -8 17 -22 16 -34 58
-34 73 -1 l12 24 26 -24 c30 -28 44 -30 65 -9 17 17 13 60 -9 108 -8 15 -10
27 -5 27 5 0 4 14 -1 30 -14 38 -34 38 -53 1 -21 -40 -64 -90 -90 -102 -11 -6
-6 1 12 16 53 44 77 106 77 207 0 74 -3 91 -22 117 -13 16 -23 34 -23 39 0 5
-13 20 -28 34 -33 29 -94 40 -139 24z"/>
<path d="M18596 3210 c-60 -18 -116 -94 -116 -157 0 -40 37 -160 52 -169 8 -5
9 1 4 17 -38 133 8 253 107 280 72 19 74 21 47 29 -33 10 -59 10 -94 0z"/>
<path d="M13653 3151 c-3 -9 -15 -36 -26 -61 -22 -49 -38 -219 -18 -190 9 13
11 13 11 -2 0 -9 -5 -20 -10 -23 -12 -7 -3 -51 18 -83 21 -32 25 -21 7 21 -20
48 -19 54 5 32 12 -11 29 -16 45 -13 20 4 26 1 31 -18 3 -13 4 -29 1 -36 -4
-8 -6 -7 -6 5 -1 9 -5 17 -11 17 -13 0 -13 -36 1 -61 7 -15 7 -24 -1 -35 -10
-12 -15 -10 -32 11 -11 14 -32 32 -48 40 -25 13 -29 13 -41 -1 -9 -11 -24 -15
-50 -11 -43 6 -59 -6 -59 -45 0 -36 28 -38 60 -3 34 36 71 33 114 -11 39 -40
52 -84 41 -134 -5 -23 -4 -30 4 -26 8 5 11 -19 12 -81 1 -49 4 -77 8 -64 l7
24 17 -26 c10 -15 21 -26 25 -26 4 1 13 1 21 0 17 -1 5 -16 -12 -16 -8 0 -14
-26 -17 -70 -3 -38 -11 -79 -17 -91 -7 -11 -9 -32 -6 -45 3 -13 3 -21 -1 -18
-7 7 -15 68 -17 132 -1 20 -5 40 -10 43 -11 6 -11 -54 0 -159 9 -80 27 -112
59 -100 11 5 13 -9 10 -69 -2 -55 -6 -74 -15 -71 -7 3 -12 15 -12 26 0 21 -8
68 -17 96 -4 11 -9 10 -25 -5 -17 -15 -38 -18 -127 -19 -65 -1 -116 -6 -130
-14 -13 -7 -26 -11 -28 -8 -3 2 13 13 35 24 22 11 37 24 33 28 -4 4 13 4 38
-1 63 -11 145 -11 145 1 0 6 -11 9 -23 7 l-24 -3 22 23 c36 38 50 74 44 108
l-7 31 -21 -20 c-11 -10 -48 -27 -81 -36 -71 -20 -133 -54 -186 -102 -22 -20
-39 -31 -39 -26 0 12 44 51 110 99 27 20 50 39 50 44 0 4 11 11 24 14 15 4 36
25 53 53 23 38 28 57 25 91 -3 27 -9 42 -18 42 -8 0 -14 -4 -14 -8 0 -5 -16
-9 -35 -10 -28 -1 -33 2 -28 16 4 9 16 24 27 33 19 16 17 17 -44 16 -81 -1
-128 8 -150 28 -21 19 -30 19 -30 1 0 -7 -7 -19 -15 -26 -12 -10 -15 -9 -15 4
0 11 -4 14 -12 9 -7 -4 -25 -8 -40 -9 -16 -1 -39 -9 -53 -18 -20 -13 -25 -25
-25 -59 0 -52 20 -82 68 -105 28 -13 38 -25 44 -52 11 -56 -8 -159 -42 -225
-25 -46 -33 -77 -37 -136 -6 -77 1 -113 38 -195 22 -50 116 -114 166 -114 58
0 111 29 138 74 30 51 45 115 34 144 -8 21 -6 22 51 22 50 0 63 4 85 25 14 14
25 28 25 30 0 9 -93 90 -114 99 -19 8 -17 10 17 16 20 4 49 17 62 30 14 13 25
22 26 19 0 -2 4 -15 7 -29 4 -14 7 -85 7 -158 0 -106 3 -131 13 -127 8 3 12 0
9 -7 -2 -7 -11 -12 -19 -10 -12 2 -15 -12 -16 -68 -1 -65 0 -72 21 -79 13 -5
30 -5 41 1 20 11 38 -1 42 -27 3 -22 28 -75 35 -75 8 0 62 -111 57 -116 -7 -6
-48 8 -48 17 0 5 4 9 10 9 5 0 1 16 -10 35 -11 19 -17 35 -15 35 3 0 -7 18
-21 40 -15 22 -31 40 -36 40 -5 0 -6 5 -3 10 3 6 1 10 -4 10 -18 0 -13 -25 15
-73 33 -60 45 -102 32 -115 -13 -13 0 -52 18 -52 8 0 14 -4 14 -10 0 -16 -22
-12 -37 7 -13 17 -14 17 -9 -2 2 -11 7 -35 11 -53 7 -34 25 -44 25 -14 0 22
74 92 97 92 13 0 12 5 -7 25 -13 14 -19 25 -14 25 5 0 2 5 -6 10 -13 9 -12 13
9 30 31 26 36 25 51 -10 11 -26 18 -30 50 -30 20 0 59 7 86 16 74 23 347 19
559 -10 117 -15 336 -65 372 -84 10 -6 35 -13 56 -16 21 -3 45 -13 53 -21 8
-8 30 -17 49 -21 19 -3 35 -10 35 -14 0 -6 67 -30 86 -30 4 0 -1 7 -12 16 -18
15 -18 15 6 9 14 -3 46 -8 71 -11 33 -5 48 -12 55 -28 5 -11 29 -31 54 -43 48
-23 85 -30 75 -13 -4 6 -11 8 -16 5 -5 -4 -9 -2 -9 4 0 18 33 29 62 21 16 -5
30 -5 33 1 4 5 -4 10 -17 11 -13 1 15 4 62 7 79 6 99 1 100 -21 0 -4 -16 -4
-35 -1 -36 6 -44 -4 -23 -25 18 -18 85 -15 92 3 3 8 17 15 31 15 29 0 32 8 8
26 -16 12 -14 13 20 14 21 0 36 4 32 9 -3 5 -21 7 -40 4 -22 -4 -41 -1 -52 8
-11 9 -14 10 -9 1 4 -6 2 -12 -3 -12 -6 0 -11 5 -11 10 0 6 -8 10 -17 8 -10
-2 -17 2 -16 9 2 6 -5 12 -15 12 -58 3 -83 9 -132 33 -32 15 -69 25 -87 24
-22 -2 -33 2 -33 11 0 14 -2 15 -52 15 -18 1 -39 6 -47 12 -7 6 -24 10 -38 11
-13 0 -27 5 -31 10 -4 6 -25 11 -47 12 -22 0 -53 7 -70 13 -16 7 -46 13 -65
13 -19 1 -38 5 -41 10 -3 4 -19 10 -35 12 -16 2 -31 4 -34 5 -3 1 -21 1 -40 1
-32 -2 -156 26 -204 45 -14 5 -17 4 -12 -4 9 -15 -9 -15 -35 -1 -24 12 -80 19
-174 21 -38 1 -60 3 -47 5 12 3 22 9 22 14 0 5 -10 10 -22 10 -55 3 -71 7 -78
19 -6 10 -15 10 -37 2 -18 -6 -36 -6 -44 -1 -8 5 -10 9 -6 9 5 0 -6 13 -23 29
-27 24 -38 28 -69 24 -33 -5 -36 -3 -37 22 -2 36 -11 42 -31 22 -16 -16 -16
-17 0 -17 19 0 22 -17 7 -40 -8 -13 -11 -12 -23 4 -9 13 -16 15 -21 8 -4 -6
-12 -9 -20 -6 -7 3 -26 0 -42 -7 -16 -6 -47 -14 -69 -16 -22 -3 -43 -10 -47
-16 -5 -8 -9 -6 -14 6 -3 9 -10 17 -15 17 -6 0 -5 -9 1 -21 14 -25 6 -36 -14
-20 -11 10 -16 7 -24 -16 l-10 -28 -1 30 c-1 24 -3 27 -12 15 -8 -11 -12 -12
-16 -2 -2 6 -12 12 -21 13 -11 0 -12 2 -4 6 15 6 16 45 1 60 -12 12 -22 111
-12 127 4 6 9 20 10 31 2 11 10 25 18 31 13 10 13 17 1 58 -8 26 -22 59 -32
74 -15 22 -19 50 -20 141 -1 81 -6 116 -15 122 -8 4 -15 35 -18 76 l-5 68 -11
-50 -12 -50 -4 83 c-3 59 0 87 9 94 9 8 12 0 13 -33 1 -24 3 -35 6 -24 2 11
11 44 20 72 13 45 14 55 2 69 -19 24 -17 158 4 207 9 21 13 36 9 33 -10 -6
-66 79 -88 133 -9 24 -14 52 -10 67 4 14 2 31 -3 38 -6 7 -15 37 -20 67 -5 30
-9 43 -10 29 -2 -36 -16 -57 -25 -35 -3 9 -6 25 -6 36 0 18 -1 18 -18 2 -10
-10 -17 -24 -14 -30 2 -7 -3 -13 -12 -13 -15 0 -16 8 -10 63 4 34 11 72 15 85
8 21 10 22 25 8 8 -9 27 -16 40 -16 25 0 34 7 63 43 13 17 12 18 -12 12 -21
-6 -27 -4 -27 9 0 9 -7 16 -15 16 -8 0 -15 4 -15 8 0 15 -32 9 -37 -7z"/>
<path d="M18623 3108 c-27 -13 -63 -95 -63 -145 0 -26 10 -55 29 -85 24 -38
39 -50 85 -67 74 -27 93 -26 37 2 -58 30 -83 64 -88 124 -5 49 16 123 35 123
18 0 21 28 4 43 -13 11 -23 12 -39 5z"/>
<path d="M3903 3010 c-3 -18 -12 -30 -22 -30 -34 -1 -92 -72 -70 -85 5 -4 9
-17 9 -31 0 -13 4 -24 10 -24 17 0 6 -44 -15 -62 -27 -24 -13 -22 37 3 33 17
46 19 64 10 13 -6 24 -15 24 -20 0 -5 8 -10 18 -10 9 0 29 -3 44 -7 40 -9 82
38 74 85 -5 31 -4 32 12 18 18 -17 72 -33 72 -22 0 3 -5 15 -10 26 -9 16 -7
19 10 19 11 0 20 -4 20 -10 0 -5 7 -10 16 -10 10 0 14 7 12 21 -2 14 -16 25
-43 35 -22 7 -50 26 -62 41 -15 18 -23 23 -23 13 -1 -8 -8 -2 -16 14 -12 22
-21 27 -40 23 -17 -3 -24 0 -24 12 -1 13 -2 13 -11 -2 -9 -16 -13 -17 -27 -4
-35 29 -52 29 -59 -3z"/>
<path d="M480 3019 c0 -5 -16 -17 -35 -25 -24 -9 -35 -21 -35 -34 0 -19 -2
-19 -23 -5 -21 13 -23 13 -23 -5 0 -10 4 -16 9 -13 5 3 6 -4 3 -15 -4 -11 -2
-23 4 -27 6 -3 8 -11 4 -16 -3 -6 4 -18 15 -28 l22 -19 -26 -18 -25 -19 35 -1
c19 0 43 -8 54 -18 25 -22 82 -23 113 -2 12 9 30 16 39 16 19 0 31 23 23 45
-4 8 -1 15 6 15 8 0 10 8 7 21 -5 19 -4 20 12 5 19 -17 31 -12 31 12 0 8 8 21
17 27 16 12 15 13 -10 12 -15 -1 -27 -8 -27 -14 0 -7 -4 -13 -8 -13 -8 0 -12
15 -13 53 0 13 -4 16 -12 10 -11 -8 -19 -9 -54 -5 -6 1 -13 12 -15 24 -4 26
-28 37 -28 13 0 -9 -6 -15 -12 -12 -7 2 -12 14 -11 26 2 15 -3 21 -17 21 -11
0 -20 -5 -20 -11z"/>
<path d="M19474 3007 c-31 -38 -64 -104 -64 -128 0 -38 41 -110 74 -130 17
-10 49 -19 70 -19 38 0 39 1 22 19 -10 11 -15 24 -11 30 3 6 -3 20 -13 32 -22
23 -33 76 -21 99 12 21 28 108 21 115 -14 14 -60 3 -78 -18z"/>
<path d="M5726 2945 c-4 -14 -11 -25 -17 -25 -17 0 -48 -43 -49 -68 0 -37 26
-89 55 -108 22 -14 32 -15 65 -5 22 6 40 16 40 20 0 5 13 22 30 38 29 29 30
30 17 74 -11 37 -17 43 -35 41 -12 -2 -22 1 -22 7 0 10 -38 27 -52 23 -5 -1
-8 5 -8 13 0 24 -17 17 -24 -10z"/>
<path d="M8293 2889 c-6 -6 -9 -26 -6 -44 5 -31 4 -32 -26 -27 -17 2 -34 8
-37 13 -6 11 -26 -7 -43 -40 -12 -22 -13 -22 -26 -4 -14 17 -14 17 -15 -1 0
-17 -2 -18 -17 -4 -10 8 -33 22 -50 31 l-33 15 0 -48 c0 -27 5 -61 12 -75 15
-33 4 -43 -22 -20 -11 10 -23 16 -26 12 -9 -9 44 -40 56 -32 5 3 10 2 10 -3 0
-6 6 -10 13 -9 38 1 77 -4 76 -10 -4 -22 4 -33 34 -52 18 -11 43 -39 56 -63
l24 -43 -34 32 c-75 71 -107 92 -162 108 -34 10 -64 26 -75 40 -23 29 -32 23
-32 -21 0 -23 10 -44 32 -69 26 -30 29 -38 17 -46 -9 -5 11 -7 53 -3 49 4 74
1 96 -10 45 -23 91 -65 109 -99 13 -26 8 -23 -34 20 -38 39 -60 52 -98 61 -62
15 -195 13 -195 -3 0 -21 32 -56 63 -69 l32 -13 -32 -17 c-33 -17 -46 -33 -18
-22 8 3 15 1 15 -4 0 -5 -16 -14 -35 -21 -43 -16 -44 -30 -4 -63 21 -18 42
-26 70 -26 l39 0 0 -50 c0 -66 38 -142 78 -159 15 -7 45 -11 65 -9 34 2 66
-19 67 -44 0 -5 5 -8 11 -8 6 0 1 13 -10 29 l-21 28 44 28 c62 39 71 61 71
179 0 82 -5 113 -24 163 -14 37 -31 65 -41 68 -24 8 -50 86 -49 144 l1 46 13
-50 c7 -27 20 -68 29 -90 l16 -40 -6 48 c-4 26 -3 67 0 91 6 39 12 47 44 63
49 24 60 57 36 108 -14 29 -28 42 -51 49 -22 6 -33 15 -33 27 0 21 -11 24 -27
8z"/>
<path d="M4729 2693 c-1 -17 -3 -21 -6 -10 -7 28 -23 9 -23 -29 0 -20 8 -42
18 -52 10 -10 21 -26 25 -35 3 -9 13 -17 21 -17 17 0 28 -24 20 -45 -4 -8 -1
-15 4 -15 6 0 12 -8 14 -17 3 -16 5 -15 23 3 11 12 28 24 38 27 14 5 17 2 15
-16 -5 -36 -18 -50 -33 -37 -8 7 -16 7 -19 2 -3 -6 4 -12 17 -16 39 -10 78 -6
109 12 30 17 31 17 45 -5 9 -13 21 -23 28 -23 8 0 15 -4 17 -9 9 -25 195 -114
273 -131 33 -6 73 -16 89 -21 16 -5 43 -9 59 -9 52 0 16 21 -47 27 -31 3 -59
10 -62 14 -3 5 -16 9 -28 9 -13 0 -29 7 -36 15 -7 8 -22 15 -34 15 -23 0 -61
20 -38 20 6 0 12 5 12 10 0 6 -7 10 -15 10 -8 0 -15 -7 -15 -15 0 -13 -3 -13
-20 -3 -11 7 -16 14 -10 16 16 6 12 22 -5 22 -11 0 -14 7 -9 25 4 15 2 25 -5
25 -6 0 -11 6 -11 14 0 7 -7 19 -15 26 -8 7 -15 18 -15 24 0 6 5 4 10 -4 8
-12 10 -11 10 7 0 12 -8 27 -17 32 -17 10 -16 12 7 31 25 19 22 24 -12 21 -9
-1 -28 5 -41 13 -13 9 -27 13 -32 9 -4 -5 -5 0 -1 11 4 13 2 17 -8 13 -8 -3
-13 1 -12 11 1 11 -8 18 -24 20 -14 2 -29 8 -34 13 -6 5 -25 9 -43 9 -20 0
-33 5 -33 13 0 8 -23 13 -75 15 l-75 2 -1 -27z"/>
<path d="M6642 2705 c-23 -7 -50 -16 -60 -21 -9 -4 -21 -8 -26 -8 -14 -1 -20
-26 -6 -26 7 0 8 -6 0 -19 -10 -20 -4 -51 10 -51 4 0 8 -21 8 -46 2 -65 8 -78
45 -95 38 -18 108 -6 129 23 12 16 18 15 83 -8 54 -19 95 -26 180 -29 61 -2
97 -2 80 1 -73 11 -158 55 -135 69 5 3 10 19 10 36 0 22 -5 29 -20 29 -12 0
-20 7 -20 16 0 9 -9 18 -20 21 -11 3 -20 12 -20 19 0 8 -8 18 -17 21 -10 4
-24 13 -32 21 -7 7 -20 11 -27 8 -8 -3 -21 6 -30 20 -12 17 -22 23 -35 19 -11
-4 -19 -2 -19 4 0 14 -25 13 -78 -4z"/>
<path d="M5765 2396 c-79 -23 -114 -37 -127 -53 -10 -13 -11 -17 0 -21 9 -3 5
-12 -13 -29 -14 -14 -25 -30 -25 -34 0 -5 21 -14 46 -20 32 -8 44 -16 40 -26
-3 -8 -1 -11 4 -8 6 3 10 -3 10 -13 0 -13 9 -22 25 -26 22 -6 25 -12 26 -49
l1 -42 12 34 c14 38 60 61 70 35 3 -8 10 -14 16 -14 14 0 13 27 -2 33 -8 3 -6
6 5 6 10 1 17 -6 17 -19 0 -10 6 -23 13 -27 8 -4 19 -17 25 -28 10 -17 11 -18
12 -2 0 9 5 17 10 17 6 0 10 12 10 27 0 21 3 24 12 15 18 -18 27 -15 25 8 -1
15 -9 20 -32 21 -26 0 -27 2 -10 9 11 5 36 9 56 9 20 1 56 10 80 21 38 17 41
20 18 20 -15 0 -29 7 -33 15 -3 8 -17 20 -31 27 -14 6 -25 17 -25 24 0 8 -6
11 -15 8 -10 -4 -15 0 -15 10 0 9 -11 21 -25 26 -14 5 -25 13 -25 17 0 13 -75
32 -101 27 -19 -5 -21 -3 -9 5 18 13 8 12 -45 -3z"/>
<path d="M16282 2309 c-3 -36 -21 -54 -70 -69 -48 -15 -82 -54 -82 -93 0 -14
13 -39 29 -56 38 -41 99 -44 136 -6 14 13 25 31 25 39 0 9 7 12 20 9 11 -3 20
-9 20 -14 0 -5 5 -9 11 -9 5 0 49 -18 96 -40 47 -23 90 -39 95 -38 6 2 -14 15
-44 28 -29 14 -55 28 -58 31 -3 3 -15 11 -28 18 -28 15 -21 27 18 36 17 4 28
11 24 16 -7 13 10 11 23 -2 8 -8 13 -7 19 2 4 7 3 14 -4 17 -7 2 -12 10 -12
18 0 21 -38 41 -110 58 -49 11 -67 12 -73 3 -5 -7 -6 -1 -2 13 6 23 5 24 -9 6
-14 -17 -15 -15 -19 20 -2 23 -4 29 -5 13z"/>
<path d="M18465 2257 c-40 -19 -65 -44 -64 -62 0 -5 3 -4 6 3 8 19 22 14 50
-18 14 -17 28 -29 30 -26 3 3 -2 12 -11 21 -20 20 -21 45 -1 45 26 0 86 -34
81 -46 -2 -6 9 -21 25 -33 31 -23 148 -84 195 -101 l29 -11 -29 26 c-16 14
-33 25 -37 25 -5 0 -24 11 -43 24 -28 19 -32 25 -20 30 9 4 23 1 30 -5 10 -8
14 -8 14 0 0 6 10 12 23 12 16 1 17 3 5 6 -9 2 -15 10 -12 18 10 24 -72 93
-119 101 -75 12 -111 10 -152 -9z"/>
<path d="M15273 1925 c-2 -7 -15 -10 -29 -7 -19 3 -24 0 -24 -16 0 -12 9 -22
23 -26 31 -9 73 -64 59 -78 -8 -8 -13 -7 -18 6 -3 9 -14 21 -23 26 -15 8 -17
3 -15 -35 l3 -44 -31 13 c-35 15 -75 71 -58 81 6 4 20 -1 31 -11 18 -17 20
-17 34 2 12 17 12 20 0 30 -8 6 -15 19 -15 28 0 19 1 19 -39 5 -30 -10 -31
-13 -31 -64 0 -49 3 -56 31 -76 36 -25 113 -37 124 -19 4 6 -3 22 -16 36 -12
13 -17 24 -11 24 7 0 17 -9 24 -20 17 -27 36 -25 44 5 6 24 29 34 36 16 8 -21
354 -189 365 -177 2 2 -20 16 -49 30 -87 42 -140 75 -154 93 -12 17 -25 70
-29 118 -1 11 -5 28 -10 38 -6 15 -10 16 -16 5 -6 -10 -11 -10 -21 0 -6 6 -24
12 -39 12 -15 0 -30 6 -32 13 -4 9 -8 8 -16 -3 -6 -8 -11 -10 -11 -5 0 14 -81
14 -87 0z"/>
<path d="M17550 1921 c0 -5 -20 -8 -44 -8 -25 0 -52 -5 -60 -12 -8 -7 -19 -10
-24 -7 -17 10 -131 -26 -153 -50 -19 -20 -21 -29 -13 -56 14 -48 68 -81 119
-73 22 3 46 12 55 20 23 21 113 27 136 10 10 -8 14 -15 9 -15 -6 0 -16 5 -23
12 -14 14 -27 4 -17 -12 4 -7 19 -10 33 -7 18 3 68 -12 152 -48 158 -67 195
-77 104 -28 -40 21 -83 46 -95 55 l-24 17 26 0 c15 1 32 8 39 16 14 17 8 51
-9 47 -8 -2 -10 4 -6 18 4 12 2 20 -6 20 -6 0 -32 20 -56 45 -28 30 -52 45
-68 45 -14 0 -25 5 -25 10 0 6 -11 10 -25 10 -14 0 -25 -4 -25 -9z"/>
<path d="M16306 1664 c-9 -8 -44 -20 -78 -26 -87 -16 -94 -23 -63 -64 14 -19
23 -34 19 -34 -3 0 -1 -6 5 -13 18 -22 2 -27 -30 -9 -16 10 -29 26 -29 37 0
11 -4 26 -9 34 -7 11 -10 9 -16 -9 -21 -65 113 -134 172 -88 6 5 17 8 25 7 21
-4 59 12 53 22 -4 5 -2 9 3 9 12 0 24 -29 17 -40 -3 -5 4 -14 16 -20 20 -11
21 -10 14 18 l-6 30 125 4 c80 2 130 8 138 16 9 9 9 12 -1 12 -7 0 -10 4 -7 9
3 5 -7 14 -23 21 -16 6 -32 18 -35 26 -3 8 -14 14 -23 14 -10 0 -29 7 -41 16
-13 9 -34 14 -48 11 -18 -3 -24 0 -24 14 0 21 -16 26 -23 7 -4 -10 -8 -10 -15
1 -6 9 -12 10 -16 3 -4 -6 -12 -9 -19 -7 -46 14 -67 14 -81 -1z"/>
<path d="M18505 1611 c-28 -6 -29 -7 -10 -19 17 -10 13 -11 -33 -12 -61 0
-102 -18 -126 -55 -21 -32 -12 -48 10 -17 l15 21 62 -32 c34 -17 66 -38 70
-45 5 -7 17 -10 28 -7 13 4 19 2 19 -9 0 -20 19 -31 32 -18 7 7 19 7 36 1 13
-5 27 -7 30 -4 3 2 11 0 19 -6 10 -9 13 -7 13 10 0 11 5 21 10 21 6 0 10 -7
10 -15 0 -17 45 -21 55 -5 3 6 -1 10 -9 10 -9 0 -16 6 -16 14 0 14 42 26 91
26 16 0 29 5 29 11 0 6 -7 9 -15 5 -9 -3 -15 0 -15 9 0 9 -9 15 -21 15 -12 0
-23 8 -26 19 -3 12 -11 17 -20 14 -9 -4 -16 2 -20 16 -3 11 -12 21 -21 21 -23
0 -82 23 -82 32 0 4 -7 8 -16 8 -8 0 -12 -4 -9 -10 4 -6 -5 -10 -19 -10 -14 0
-26 5 -26 10 0 11 -1 11 -45 1z"/>
<path d="M13525 1409 c-53 -31 -71 -91 -36 -123 25 -23 51 -11 51 25 0 80 144
75 209 -7 26 -33 27 -19 2 22 -34 56 -86 87 -149 91 -32 2 -66 -2 -77 -8z"/>
<path d="M19760 1249 c0 -4 6 -9 13 -12 6 -2 1 -2 -13 1 -43 8 -183 12 -218 6
-29 -6 -31 -8 -15 -19 9 -7 24 -11 33 -8 8 2 5 -2 -8 -10 -20 -11 -21 -15 -9
-25 10 -9 18 -8 33 2 16 12 25 11 69 -11 27 -14 61 -33 75 -42 14 -10 43 -23
65 -29 38 -11 106 -65 133 -107 12 -19 13 -19 8 4 -5 24 -5 24 23 -5 15 -16
26 -32 24 -35 -1 -4 3 -9 11 -12 8 -3 16 -16 18 -28 2 -16 13 -25 37 -31 41
-11 54 -2 17 11 -14 6 -26 15 -26 21 0 6 14 4 36 -5 20 -8 52 -15 71 -15 19 0
32 -4 28 -9 -3 -5 -1 -12 5 -16 5 -3 10 -15 10 -26 0 -12 7 -19 20 -19 12 0
20 7 20 16 0 12 6 15 28 10 26 -6 26 -6 7 10 -19 15 -18 16 17 12 20 -2 34 0
32 4 -5 7 46 23 61 19 16 -3 1 -15 -17 -13 -12 2 -18 0 -14 -7 4 -6 20 -11 36
-11 22 0 28 4 24 15 -4 8 -1 15 5 15 6 0 11 8 11 18 1 16 1 16 14 0 18 -25 24
-22 18 7 -2 14 -13 30 -23 36 -11 5 -19 15 -19 22 0 11 -50 39 -75 41 -5 1
-13 10 -16 21 -3 11 -13 19 -23 18 -10 0 -15 4 -12 12 7 19 -4 26 -24 15 -20
-11 -35 11 -19 27 6 6 -3 8 -25 7 -23 -2 -36 2 -40 11 -3 9 -18 15 -35 15 -16
0 -36 6 -43 13 -7 8 -18 12 -25 10 -6 -2 -17 5 -23 17 -9 17 -14 18 -32 9 -14
-7 -18 -8 -14 0 4 6 -3 13 -16 16 -72 16 -106 21 -135 19 -18 -1 -33 2 -33 6
0 4 -11 10 -25 12 -14 3 -25 2 -25 -3z"/>
<path d="M14806 1209 c3 -5 13 -9 23 -9 10 0 24 -7 31 -15 10 -12 16 -13 27
-3 13 10 19 8 33 -10 19 -23 46 -31 34 -9 -4 6 3 2 15 -10 12 -13 34 -26 49
-29 15 -4 44 -18 65 -31 20 -13 37 -21 37 -18 0 3 13 -1 30 -10 16 -8 38 -15
50 -15 11 0 20 -4 20 -10 0 -5 5 -10 12 -10 6 0 19 -6 27 -13 27 -23 105 -47
131 -41 15 3 20 2 13 -3 -8 -6 -4 -12 13 -20 13 -6 24 -7 24 -2 0 15 37 10 44
-6 3 -8 17 -20 30 -26 20 -9 28 -9 39 3 17 16 23 13 -128 68 -80 29 -229 94
-277 120 -10 6 -22 10 -27 10 -5 0 -26 8 -47 17 -22 10 -43 18 -49 18 -5 1
-21 7 -35 15 -46 27 -103 41 -112 27 -6 -9 -10 -9 -15 -1 -9 13 -65 25 -57 13z"/>
<path d="M14058 1183 c-47 -7 -31 -22 22 -21 85 2 123 -55 83 -123 -10 -16
-20 -29 -23 -29 -4 0 -14 16 -23 35 -23 48 -58 69 -104 62 -20 -4 -46 -16 -57
-27 l-21 -21 37 5 c29 3 36 1 31 -10 -4 -10 0 -12 11 -8 9 3 18 0 21 -7 3 -8
19 -15 35 -16 16 -1 41 -10 55 -19 23 -15 27 -15 50 0 49 32 50 124 2 164 -18
15 -77 23 -119 15z"/>
<path d="M18820 999 c-30 -16 -63 -29 -73 -29 -16 0 -16 -2 -1 -25 9 -14 12
-25 6 -25 -6 0 -14 5 -17 10 -11 17 -45 11 -45 -7 1 -25 42 -52 82 -55 28 -3
34 -7 36 -27 3 -30 16 -47 53 -65 35 -17 37 -14 7 14 -30 28 -19 25 22 -5 36
-27 97 -33 144 -15 32 12 56 81 36 105 -18 21 -31 6 -39 -42 -5 -32 -11 -38
-33 -41 -61 -7 -104 51 -94 127 3 24 13 55 21 68 18 26 9 32 -10 6 -12 -16
-14 -16 -31 2 -17 17 -17 18 -1 12 11 -4 17 -2 17 8 0 21 -17 18 -80 -16z"/>
<path d="M19714 999 c-5 -9 1 -10 19 -5 29 7 110 -21 101 -35 -3 -5 2 -12 10
-15 9 -3 16 -17 16 -29 0 -13 4 -26 9 -30 14 -8 3 -76 -15 -96 -37 -41 -103
-22 -107 30 -1 17 -7 21 -27 19 -14 -1 -31 -6 -37 -11 -10 -7 -13 -2 -13 19 0
21 -3 25 -12 16 -15 -15 6 -67 24 -56 6 4 8 3 5 -2 -7 -13 2 -26 33 -47 29
-20 67 -22 107 -5 15 6 34 10 41 9 6 -1 12 3 12 9 0 5 7 10 15 10 8 0 15 5 15
10 0 6 10 2 22 -10 12 -11 31 -20 42 -19 17 0 14 4 -11 15 -17 7 -35 19 -39
26 -14 22 -11 48 4 48 12 0 12 3 2 16 -8 8 -15 26 -16 39 -4 34 -32 72 -67 90
-35 18 -123 20 -133 4z"/>
<path d="M13289 917 c-77 -52 -99 -136 -59 -224 22 -49 36 -57 25 -15 -13 52
-13 60 -3 101 14 54 66 101 112 101 32 0 59 -18 55 -36 -1 -5 0 -16 4 -24 3
-8 9 -28 12 -45 4 -16 9 -25 12 -18 2 7 10 10 16 7 8 -3 13 13 15 50 2 49 -1
57 -29 85 -17 17 -38 32 -47 32 -9 1 -31 3 -48 5 -21 2 -43 -4 -65 -19z"/>
<path d="M19310 822 c-32 -15 -35 -21 -38 -64 -3 -40 1 -52 22 -73 20 -20 32
-24 53 -19 49 10 73 27 90 61 15 32 15 35 -5 53 -11 10 -23 17 -26 14 -3 -2
-4 -1 -1 2 2 4 0 15 -6 25 -12 24 -44 24 -89 1z"/>
<path d="M10880 802 c0 -7 -63 -42 -75 -42 -3 0 -5 7 -5 16 0 11 -5 14 -16 10
-9 -3 -22 -6 -30 -6 -8 0 -14 -7 -14 -16 0 -11 6 -15 20 -11 23 6 154 -24 189
-43 15 -8 21 -8 17 -1 -5 7 1 11 14 11 12 0 19 -4 15 -9 -7 -13 19 -17 79 -12
50 5 50 5 16 12 -19 4 37 6 125 3 88 -2 175 -4 193 -4 17 0 32 -4 32 -10 0 -5
18 -9 40 -8 22 1 40 4 40 8 0 15 -49 32 -98 34 -28 1 -54 4 -57 8 -4 4 -13 4
-21 1 -27 -10 -124 7 -124 23 0 19 -16 18 -24 -1 -3 -10 -19 -15 -47 -15 -34
0 -40 3 -35 17 8 19 -9 33 -41 33 -17 0 -23 -6 -24 -22 -1 -17 -2 -19 -6 -5
-3 10 -14 17 -29 17 -31 0 -40 -3 -36 -12 1 -5 -8 -8 -20 -8 -19 0 -20 -2 -8
-10 12 -8 11 -10 -7 -10 -20 0 -21 3 -13 24 7 20 5 25 -13 30 -30 8 -37 7 -37
-2z"/>
</g>
</svg>
